<?xml version="1.0" encoding="UTF-8" standalone="no"?>
<!-- Created with Inkscape (http://www.inkscape.org/) -->

<svg
   width="226.24159mm"
   height="140.59354mm"
   viewBox="0 0 226.24159 140.59354"
   version="1.1"
   id="svg1"
   inkscape:version="1.4 (e7c3feb1, 2024-10-09)"
   sodipodi:docname="logo.svg"
   xmlns:inkscape="http://www.inkscape.org/namespaces/inkscape"
   xmlns:sodipodi="http://sodipodi.sourceforge.net/DTD/sodipodi-0.dtd"
   xmlns="http://www.w3.org/2000/svg"
   xmlns:svg="http://www.w3.org/2000/svg">
  <sodipodi:namedview
     id="namedview1"
     pagecolor="#ffffff"
     bordercolor="#000000"
     borderopacity="0.25"
     inkscape:showpageshadow="2"
     inkscape:pageopacity="0.0"
     inkscape:pagecheckerboard="0"
     inkscape:deskcolor="#d1d1d1"
     inkscape:document-units="mm"
     inkscape:clip-to-page="false"
     inkscape:zoom="0.77331791"
     inkscape:cx="393.11129"
     inkscape:cy="444.83646"
     inkscape:window-width="1624"
     inkscape:window-height="1013"
     inkscape:window-x="221"
     inkscape:window-y="44"
     inkscape:window-maximized="0"
     inkscape:current-layer="layer1" />
  <defs
     id="defs1">
    <linearGradient
       id="SVGID_21_261337"
       gradientUnits="userSpaceOnUse"
       x1="81.153297"
       y1="616.02472"
       x2="537.75531"
       y2="668.82922">
      <stop
         offset="0%"
         style="stop-color:rgb(50,23,99);stop-opacity: 1"
         id="stop1" />
      <stop
         offset="52.42%"
         style="stop-color:rgb(122,15,174);stop-opacity: 1"
         id="stop2" />
    </linearGradient>
    <linearGradient
       id="SVGID_22_261338"
       gradientUnits="userSpaceOnUse"
       x1="107.7547"
       y1="696.21667"
       x2="509.7182"
       y2="558.27362">
      <stop
         offset="0%"
         style="stop-color:rgb(50,23,99);stop-opacity: 1"
         id="stop3" />
      <stop
         offset="41.699999999999996%"
         style="stop-color:rgb(122,15,174);stop-opacity: 1"
         id="stop4" />
      <stop
         offset="93.67%"
         style="stop-color:rgb(50,23,99);stop-opacity: 1"
         id="stop5" />
    </linearGradient>
    <linearGradient
       id="SVGID_23_261339"
       gradientUnits="userSpaceOnUse"
       x1="-1476.0514"
       y1="1305.2577"
       x2="1801.2595"
       y2="97.827301">
      <stop
         offset="0%"
         style="stop-color:rgb(48,50,145);stop-opacity: 1"
         id="stop7" />
      <stop
         offset="15.989999999999998%"
         style="stop-color:rgb(44,59,167);stop-opacity: 1"
         id="stop8" />
      <stop
         offset="49.03%"
         style="stop-color:rgb(35,83,222);stop-opacity: 1"
         id="stop9" />
      <stop
         offset="59.99%"
         style="stop-color:rgb(32,92,242);stop-opacity: 1"
         id="stop10" />
      <stop
         offset="61.629999999999995%"
         style="stop-color:rgb(36,82,219);stop-opacity: 1"
         id="stop11" />
      <stop
         offset="64.05999999999999%"
         style="stop-color:rgb(40,70,192);stop-opacity: 1"
         id="stop12" />
      <stop
         offset="66.71000000000001%"
         style="stop-color:rgb(44,61,171);stop-opacity: 1"
         id="stop13" />
      <stop
         offset="69.67%"
         style="stop-color:rgb(46,55,156);stop-opacity: 1"
         id="stop14" />
      <stop
         offset="73.16%"
         style="stop-color:rgb(48,51,148);stop-opacity: 1"
         id="stop15" />
      <stop
         offset="78.57%"
         style="stop-color:rgb(48,50,145);stop-opacity: 1"
         id="stop16" />
    </linearGradient>
    <linearGradient
       id="SVGID_24_261340"
       gradientUnits="userSpaceOnUse"
       x1="-53.0177"
       y1="801.51379"
       x2="1061.1899"
       y2="343.724">
      <stop
         offset="0%"
         style="stop-color:rgb(48,50,145);stop-opacity: 1"
         id="stop18" />
      <stop
         offset="47.599999999999994%"
         style="stop-color:rgb(62,88,232);stop-opacity: 1"
         id="stop19" />
      <stop
         offset="100%"
         style="stop-color:rgb(48,50,145);stop-opacity: 1"
         id="stop20" />
    </linearGradient>
    <linearGradient
       id="SVGID_25_261341"
       gradientUnits="userSpaceOnUse"
       gradientTransform="matrix(0.9982,-0.06018481,0.06018481,0.9982,-36.2133,496.478)"
       x1="627.09802"
       y1="90.918602"
       x2="882.2879"
       y2="-39.450199">
      <stop
         offset="1.410946%"
         style="stop-color:rgb(218,5,229);stop-opacity: 1"
         id="stop22" />
      <stop
         offset="100%"
         style="stop-color:rgb(23,2,23);stop-opacity: 1"
         id="stop23" />
    </linearGradient>
    <linearGradient
       id="SVGID_26_261342"
       gradientUnits="userSpaceOnUse"
       gradientTransform="matrix(0.9982,-0.06018481,0.06018481,0.9982,-36.2133,496.478)"
       x1="969.82159"
       y1="-14.572"
       x2="659.72247"
       y2="447.03671">
      <stop
         offset="1.410946%"
         style="stop-color:rgb(218,5,229);stop-opacity: 1"
         id="stop24" />
      <stop
         offset="49.65%"
         style="stop-color:rgb(65,60,245);stop-opacity: 1"
         id="stop25" />
      <stop
         offset="100%"
         style="stop-color:rgb(4,198,255);stop-opacity: 1"
         id="stop26" />
    </linearGradient>
    <linearGradient
       id="SVGID_27_261343"
       gradientUnits="userSpaceOnUse"
       gradientTransform="matrix(1,0,0,-1,0,1200)"
       x1="795.48297"
       y1="273.39551"
       x2="901.18512"
       y2="867.7785">
      <stop
         offset="1.7833849999999998%"
         style="stop-color:rgb(53,99,203);stop-opacity: 1"
         id="stop27" />
      <stop
         offset="52.05%"
         style="stop-color:rgb(120,30,209);stop-opacity: 1"
         id="stop28" />
      <stop
         offset="100%"
         style="stop-color:rgb(218,5,229);stop-opacity: 1"
         id="stop29" />
    </linearGradient>
    <linearGradient
       id="SVGID_28_261344"
       gradientUnits="userSpaceOnUse"
       gradientTransform="matrix(0.9982,-0.06018481,0.06018481,0.9982,-36.2133,496.478)"
       x1="836.35211"
       y1="24.915701"
       x2="435.08511"
       y2="102.3532">
      <stop
         offset="1.410946%"
         style="stop-color:rgb(218,5,229);stop-opacity: 1"
         id="stop30" />
      <stop
         offset="100%"
         style="stop-color:rgb(23,2,23);stop-opacity: 1"
         id="stop31" />
    </linearGradient>
  </defs>
  <g
     inkscape:label="Warstwa 1"
     inkscape:groupmode="layer"
     id="layer1"
     transform="translate(11.134116,-114.25445)">
    <g
       transform="matrix(0.50830527,0,0,0.50830527,102.45825,157.05862)"
       id="logo-logo">
      <g
         paint-order="stroke"
         id="g34">
        <g
           transform="matrix(0.30608496,0,0,0.30608496,-90.432232,11.933933)"
           id="g7">
          <g
             paint-order="stroke"
             id="g6">
            <g
               id="g2">
              <linearGradient
                 id="linearGradient17"
                 gradientUnits="userSpaceOnUse"
                 x1="81.153297"
                 y1="616.02472"
                 x2="537.75531"
                 y2="668.82922">
                <stop
                   offset="0%"
                   style="stop-color:rgb(50,23,99);stop-opacity: 1"
                   id="stop6" />
                <stop
                   offset="52.42%"
                   style="stop-color:rgb(122,15,174);stop-opacity: 1"
                   id="stop17" />
              </linearGradient>
              <path
                 style="opacity:1;fill:url(#SVGID_21_261337);fill-rule:nonzero;stroke:none;stroke-width:1;stroke-linecap:butt;stroke-linejoin:miter;stroke-miterlimit:4;stroke-dasharray:none;stroke-dashoffset:0"
                 paint-order="stroke"
                 transform="translate(-306.31878,-638.97645)"
                 d="m 509,651 c -1.6,5.9 -4.1,11.5 -7,16.8 -2.7,4.9 -5.9,9.6 -9.2,14.1 -2.5,3.4 -5.2,6.6 -7.9,9.8 -5.1,6 -10.4,11.6 -15.4,16.9 -20,21.2 -43.2,40.3 -68.2,55.4 -32.8,19.9 -69,32.9 -105.7,35.2 -6.8,0.4 -13.6,0.5 -20.5,0.1 -0.9,0 -1.9,-0.1 -2.8,-0.2 -2.8,-0.2 -5.5,-0.4 -8.3,-0.8 v 0 c -1.8,-0.2 -3.7,-0.4 -5.5,-0.7 0,0 0,0 0,0 -24,-3.5 -47.8,-12.1 -70.8,-27 -51.5,-33.3 -86.1,-97.7 -86.3,-159.1 0,-0.5 0,-1.1 0,-1.6 0.1,-11.1 1.4,-21.4 3.8,-31 0.7,-2.8 1.5,-5.5 2.4,-8.2 8.9,-26.8 26.9,-47.2 49.8,-61.8 0.2,-0.1 0.3,-0.2 0.5,-0.3 2.3,-1.5 4.7,-2.9 7,-4.2 0.1,0 0.1,-0.1 0.2,-0.1 8.7,-4.9 18.1,-9.1 27.8,-12.5 26.2,-9.3 55.5,-13.5 84,-13.4 7.3,0 14.7,0.5 22.1,1.5 -6.2,0.4 -12.1,1.5 -17.7,3.1 -2.2,0.6 -4.3,1.4 -6.3,2.2 -15.1,6 -27.1,16.6 -35.6,29.9 -9.5,14.9 -14.4,33.2 -14.2,52.5 0.1,8.9 1.2,17.7 3.3,26.1 0,0.1 0,0.2 0.1,0.3 1.3,7.3 20.5,100.8 142.1,92.2 0.8,-0.1 1.7,-0.1 2.5,-0.2 2.1,-0.2 4.2,-0.4 6.4,-0.6 11.7,-1.3 24.4,-3.4 38,-6.7 18,-5 35.1,-15.6 51,-29.2 10.4,-8.9 20.3,-19.2 29.4,-30 0.2,-0.2 1.7,0.1 1.9,0.2 0.7,0.1 1.3,0.2 2,0.4 1.3,0.3 2.5,0.8 3.7,1.5 2.5,1.6 4,4 4.8,6.8 0.2,0.7 0.3,1.4 0.5,2.2 0.1,0.5 0.2,1 0.2,1.5 0.5,6.3 -0.4,12.9 -2.1,18.9 z"
                 stroke-linecap="round"
                 id="path2" />
            </g>
            <g
               transform="translate(-0.0257623,6.7008715)"
               id="g5">
              <linearGradient
                 id="linearGradient33"
                 gradientUnits="userSpaceOnUse"
                 x1="107.7547"
                 y1="696.21667"
                 x2="509.7182"
                 y2="558.27362">
                <stop
                   offset="0%"
                   style="stop-color:rgb(50,23,99);stop-opacity: 1"
                   id="stop21" />
                <stop
                   offset="41.699999999999996%"
                   style="stop-color:rgb(122,15,174);stop-opacity: 1"
                   id="stop32" />
                <stop
                   offset="93.67%"
                   style="stop-color:rgb(50,23,99);stop-opacity: 1"
                   id="stop33" />
              </linearGradient>
              <path
                 style="opacity:1;fill:url(#SVGID_22_261338);fill-rule:nonzero;stroke:none;stroke-width:1;stroke-linecap:butt;stroke-linejoin:miter;stroke-miterlimit:4;stroke-dasharray:none;stroke-dashoffset:0"
                 paint-order="stroke"
                 transform="translate(-306.29302,-645.67732)"
                 d="m 509,651 c -1.6,5.9 -4.1,11.5 -7,16.8 -2.7,4.9 -5.9,9.6 -9.2,14.1 -2.5,3.4 -5.2,6.6 -7.9,9.8 -5.1,6 -10.4,11.6 -15.4,16.9 -20,21.2 -43.2,40.3 -68.2,55.4 -32.8,19.9 -69,32.9 -105.7,35.2 -6.8,0.4 -13.6,0.5 -20.5,0.1 -0.9,0 -1.9,-0.1 -2.8,-0.2 -2.8,-0.2 -5.5,-0.4 -8.3,-0.8 v 0 c -1.8,-0.2 -3.7,-0.5 -5.5,-0.7 0,0 0,0 0,0 -23.9,-3.5 -47.7,-12.2 -70.7,-27 -51.5,-33.3 -86.1,-97.7 -86.3,-159.1 0,-0.5 0,-1.1 -0.1,-1.6 0.1,-11.1 1.4,-21.4 3.8,-31 0.7,-2.8 1.5,-5.5 2.4,-8.2 8.9,-26.8 26.9,-47.2 49.8,-61.8 0.2,-0.1 0.3,-0.2 0.5,-0.3 2.3,-1.5 4.7,-2.9 7,-4.2 0.1,0 0.1,-0.1 0.2,-0.1 8.7,-4.9 18.1,-9.1 27.8,-12.5 -1.2,2.9 -2.6,6.2 -4.3,9.8 0,0 -83.2,183 79.1,239.9 38.7,9.2 81.7,-3.4 120.8,-23 66.3,-33.2 120.8,-86.5 122,-87.7 l 0.3,-0.3 c 0.1,0.5 0.2,1 0.2,1.5 0.6,6.4 -0.3,13 -2,19 z"
                 stroke-linecap="round"
                 id="path5" />
            </g>
          </g>
        </g>
        <g
           transform="matrix(0.30608496,0,0,0.30608496,-38.327016,-7.3718004)"
           id="g22">
          <g
             paint-order="stroke"
             id="g21">
            <g
               id="g16">
              <linearGradient
                 id="linearGradient43"
                 gradientUnits="userSpaceOnUse"
                 x1="-1476.0514"
                 y1="1305.2577"
                 x2="1801.2595"
                 y2="97.827301">
                <stop
                   offset="0%"
                   style="stop-color:rgb(48,50,145);stop-opacity: 1"
                   id="stop34" />
                <stop
                   offset="15.989999999999998%"
                   style="stop-color:rgb(44,59,167);stop-opacity: 1"
                   id="stop35" />
                <stop
                   offset="49.03%"
                   style="stop-color:rgb(35,83,222);stop-opacity: 1"
                   id="stop36" />
                <stop
                   offset="59.99%"
                   style="stop-color:rgb(32,92,242);stop-opacity: 1"
                   id="stop37" />
                <stop
                   offset="61.629999999999995%"
                   style="stop-color:rgb(36,82,219);stop-opacity: 1"
                   id="stop38" />
                <stop
                   offset="64.05999999999999%"
                   style="stop-color:rgb(40,70,192);stop-opacity: 1"
                   id="stop39" />
                <stop
                   offset="66.71000000000001%"
                   style="stop-color:rgb(44,61,171);stop-opacity: 1"
                   id="stop40" />
                <stop
                   offset="69.67%"
                   style="stop-color:rgb(46,55,156);stop-opacity: 1"
                   id="stop41" />
                <stop
                   offset="73.16%"
                   style="stop-color:rgb(48,51,148);stop-opacity: 1"
                   id="stop42" />
                <stop
                   offset="78.57%"
                   style="stop-color:rgb(48,50,145);stop-opacity: 1"
                   id="stop43" />
              </linearGradient>
              <path
                 style="opacity:1;fill:url(#SVGID_23_261339);fill-rule:nonzero;stroke:none;stroke-width:1;stroke-linecap:butt;stroke-linejoin:miter;stroke-miterlimit:4;stroke-dasharray:none;stroke-dashoffset:0"
                 paint-order="stroke"
                 transform="translate(-476.55,-575.90333)"
                 d="m 843.3,625.7 c 0,0 0,0.1 -0.1,0.2 0,0.1 -0.1,0.2 -0.1,0.2 -0.2,0.5 -0.3,1 -0.5,1.4 0,0.2 -0.1,0.3 -0.2,0.5 -0.1,0.2 -0.1,0.4 -0.2,0.6 -4.5,13.5 -25.6,69.9 -74.8,106.9 -26.3,19.7 -60.5,33.9 -104.6,33.1 -29.9,0 -56.7,-6.1 -79.7,-15 0,0 -0.1,0 -0.1,0 l -1.3,-0.6 c -0.5,-0.2 -1,-0.4 -1.4,-0.6 -0.5,-0.2 -1,-0.4 -1.5,-0.7 -0.1,0 -0.3,-0.1 -0.4,-0.2 l -0.4,-0.2 c -0.3,-0.1 -0.5,-0.3 -0.8,-0.4 -6.8,-3.2 -14.2,-7.2 -22.1,-12.2 -0.4,-0.3 -0.8,-0.5 -1.2,-0.8 -1.3,-0.8 -2.5,-1.7 -3.8,-2.5 -0.4,-0.3 -0.9,-0.6 -1.3,-0.9 -1.3,-0.9 -2.6,-1.8 -3.9,-2.7 -0.9,-0.6 -1.7,-1.3 -2.6,-1.9 -0.9,-0.6 -1.8,-1.3 -2.6,-2 -0.4,-0.3 -0.9,-0.7 -1.3,-1 -4.9,-3.9 -10,-8.2 -15.2,-12.9 -0.7,-0.6 -1.3,-1.2 -2,-1.8 -0.2,-0.1 -0.3,-0.3 -0.5,-0.5 -1.2,-1.1 -2.3,-2.2 -3.5,-3.3 -0.7,-0.7 -1.3,-1.3 -2,-2 l -0.1,-0.1 c -0.5,-0.5 -0.9,-0.9 -1.4,-1.4 -1.9,-1.9 -3.8,-3.8 -5.7,-5.9 -0.5,-0.5 -1,-1 -1.4,-1.5 -1,-1 -1.9,-2.1 -2.9,-3.1 l -0.7,-0.7 c -0.9,-0.9 -1.7,-1.9 -2.6,-2.9 -0.9,-1 -1.7,-2 -2.6,-3 -0.9,-1 -1.7,-2 -2.6,-3 -0.9,-1 -1.7,-2.1 -2.6,-3.1 -0.6,-0.8 -1.2,-1.5 -1.9,-2.3 -1.9,-2.3 -3.7,-4.7 -5.6,-7.1 -1.4,-1.8 -2.8,-3.6 -4.1,-5.5 -0.7,-0.9 -1.4,-1.9 -2.1,-2.8 -0.7,-0.9 -1.4,-1.9 -2.1,-2.9 -2.8,-3.9 -5.5,-7.9 -8.3,-12 -1,-1.5 -2.1,-3.1 -3.1,-4.7 -0.4,-0.6 -0.8,-1.2 -1.2,-1.8 -0.4,-0.6 -0.8,-1.2 -1.2,-1.8 -2,-3.1 -4,-6.3 -5.9,-9.5 -0.6,-1 -1.2,-2 -1.8,-2.9 -4.3,-7.2 -8.6,-14.8 -12.9,-22.8 -0.7,-1.3 -1.4,-2.7 -2.2,-4 -0.7,-1.4 -1.4,-2.7 -2.2,-4.1 -0.3,-0.5 -0.6,-1.1 -0.9,-1.6 -0.3,-0.5 -0.6,-1.1 -0.9,-1.6 -0.5,-1 -1.1,-2 -1.6,-3 -0.1,-0.1 -0.1,-0.3 -0.2,-0.4 -1.1,-2 -2.2,-3.9 -3.3,-5.9 -14.3,-24.9 -32,-48.3 -54.2,-66.1 -11.8,-9.5 -24.9,-17.4 -39.4,-23.1 -19.8,-7.8 -41,-11.2 -62.5,-10.9 -62.1,0.9 -126.6,32.8 -165.2,78 0.6,-1.4 1.3,-2.8 1.9,-4.2 0.1,-0.1 0.1,-0.3 0.2,-0.4 -0.1,0.1 -0.1,0.2 -0.2,0.3 v 0 c 0,0 0,0.1 -0.1,0.1 0,0 0,0 0,-0.1 0.2,-0.3 0.4,-0.7 0.6,-1.1 0.2,-0.4 0.4,-0.9 0.7,-1.4 0.4,-0.9 0.9,-1.9 1.3,-2.9 0.1,-0.2 0.1,-0.3 0.2,-0.5 -0.8,1.3 -1.4,2.5 -1.9,3.7 0,0 0,0 0,0 0,0 0,0.1 0,0.1 7.8,-20.9 77.3,-181.5 255,-173 28.6,2.4 56.7,10.2 83.7,21.7 1.5,0.6 2.9,1.3 4.4,1.9 1.4,0.6 2.7,1.2 4.1,1.8 1.5,0.7 3.1,1.4 4.6,2.1 36.4,17.2 70.9,40.8 102.7,66.5 1.2,1 2.4,1.9 3.5,2.9 2.9,2.4 5.8,4.7 8.6,7.1 1.9,1.6 3.7,3.2 5.6,4.8 4.3,3.7 8.5,7.4 12.7,11.1 1.3,1.2 2.7,2.4 4,3.5 6.6,5.9 13,11.9 19.3,17.8 6.7,6.3 13.2,12.6 19.5,18.8 16.4,16.1 31.5,31.7 45,45.7 0,0 0,0 0,0.1 0.8,0.7 1.6,1.4 2.4,2 0.9,0.8 1.9,1.6 2.8,2.3 0.6,0.5 1.1,0.9 1.7,1.4 0.3,0.3 0.7,0.5 1,0.8 0.4,0.3 0.8,0.6 1.1,0.9 1.8,1.4 3.5,2.8 5.3,4.2 0.4,0.3 0.7,0.6 1.1,0.9 0.4,0.3 0.8,0.6 1.3,1 0.3,0.2 0.5,0.4 0.7,0.6 0.5,0.4 1,0.8 1.6,1.2 0.2,0.1 0.3,0.3 0.5,0.4 0.5,0.4 1,0.7 1.4,1.1 1.4,1.1 2.9,2.1 4.3,3.1 0.2,0.2 0.5,0.3 0.7,0.5 0.3,0.2 0.5,0.3 0.7,0.5 0.5,0.4 1,0.7 1.6,1.1 0.5,0.4 1.1,0.7 1.6,1.1 0.5,0.4 1,0.7 1.5,1 0.5,0.3 1,0.7 1.5,1 0.1,0.1 0.2,0.2 0.4,0.2 0.7,0.4 1.3,0.8 1.9,1.3 0.8,0.5 1.5,1 2.3,1.4 1.6,1 3.2,1.9 4.8,2.9 0.4,0.2 0.7,0.4 1.1,0.6 0.3,0.2 0.7,0.4 1,0.6 0.2,0.1 0.4,0.3 0.7,0.4 0.6,0.3 1.1,0.6 1.7,0.9 0.1,0 0.1,0.1 0.2,0.1 0.7,0.4 1.4,0.7 2,1.1 0.7,0.4 1.4,0.7 2.2,1.1 0.3,0.2 0.7,0.3 1,0.5 1.2,0.6 2.4,1.2 3.6,1.7 1,0.5 2,0.9 3,1.3 0.8,0.3 1.5,0.6 2.3,0.9 0.6,0.3 1.2,0.5 1.9,0.7 0.5,0.2 0.9,0.3 1.4,0.5 0.7,0.3 1.5,0.5 2.2,0.8 0.1,0 0.2,0.1 0.3,0.1 0.5,0.2 1,0.3 1.4,0.5 0.6,0.2 1.2,0.4 1.8,0.6 0.7,0.2 1.3,0.4 1.9,0.6 0.1,0 0.3,0.1 0.4,0.1 0.6,0.2 1.1,0.3 1.7,0.5 0.5,0.1 1,0.3 1.5,0.4 0.6,0.1 1.1,0.3 1.7,0.4 0.8,0.2 1.6,0.4 2.4,0.5 0.8,0.2 1.6,0.3 2.4,0.5 0.8,0.2 1.6,0.3 2.3,0.4 h 0.3 c 0.7,0.1 1.4,0.2 2.1,0.3 0.3,0 0.5,0.1 0.8,0.1 1.5,0.2 3,0.4 4.5,0.5 10.4,1 21.2,0.5 32.9,-1.7 1,-0.2 2,-0.4 3,-0.6 l 3,-0.6 c 1,-0.2 2,-0.5 3,-0.7 4.1,-1 8.3,-2.2 12.6,-3.6 0.8,-0.3 1.6,-0.5 2.4,-0.8 0.3,-0.1 0.5,-0.2 0.8,-0.3 1.4,-0.5 2.8,-0.9 4.1,-1.4 0,0 0,0 0,0 0.6,-0.2 1.2,-0.4 1.8,-0.7 0.9,-0.2 1.7,-0.5 2.5,-0.8 z"
                 stroke-linecap="round"
                 id="path16" />
            </g>
            <g
               transform="translate(-364.45,-17.153328)"
               id="g17">
              <path
                 style="opacity:1;fill:#2b6ef9;fill-rule:nonzero;stroke:none;stroke-width:1;stroke-linecap:butt;stroke-linejoin:miter;stroke-miterlimit:4;stroke-dasharray:none;stroke-dashoffset:0"
                 paint-order="stroke"
                 transform="translate(-112.1,-558.75)"
                 d="m 112,559 c 0,-0.2 0.1,-0.3 0.2,-0.5 -0.1,0.3 -0.2,0.5 -0.2,0.5 z"
                 stroke-linecap="round"
                 id="path17" />
            </g>
            <g
               transform="translate(-364.15,-18.003328)"
               id="g18">
              <path
                 style="opacity:1;fill:#2b6ef9;fill-rule:nonzero;stroke:none;stroke-width:1;stroke-linecap:butt;stroke-linejoin:miter;stroke-miterlimit:4;stroke-dasharray:none;stroke-dashoffset:0"
                 paint-order="stroke"
                 transform="translate(-112.4,-557.9)"
                 d="m 112.2,558.5 c 0.1,-0.3 0.2,-0.7 0.4,-1.2 -0.1,0.4 -0.3,0.8 -0.4,1.2 z"
                 stroke-linecap="round"
                 id="path18" />
            </g>
            <g
               transform="translate(0.95,-15.068253)"
               id="g20">
              <linearGradient
                 id="linearGradient46"
                 gradientUnits="userSpaceOnUse"
                 x1="-53.0177"
                 y1="801.51379"
                 x2="1061.1899"
                 y2="343.724">
                <stop
                   offset="0%"
                   style="stop-color:rgb(48,50,145);stop-opacity: 1"
                   id="stop44" />
                <stop
                   offset="47.599999999999994%"
                   style="stop-color:rgb(62,88,232);stop-opacity: 1"
                   id="stop45" />
                <stop
                   offset="100%"
                   style="stop-color:rgb(48,50,145);stop-opacity: 1"
                   id="stop46" />
              </linearGradient>
              <path
                 style="opacity:1;fill:url(#SVGID_24_261340);fill-rule:nonzero;stroke:none;stroke-width:1;stroke-linecap:butt;stroke-linejoin:miter;stroke-miterlimit:4;stroke-dasharray:none;stroke-dashoffset:0"
                 paint-order="stroke"
                 transform="translate(-477.5,-560.83507)"
                 d="m 843.3,625.7 c 0,0 0,0.1 -0.1,0.2 0,0 0,0.1 0,0.2 0,0 0,0 0,0.1 0,0.2 -0.1,0.3 -0.1,0.4 -0.1,0.2 -0.1,0.4 -0.2,0.7 -0.1,0.2 -0.1,0.5 -0.3,0.8 -0.1,0.2 -0.1,0.4 -0.2,0.6 -4.5,13.5 -25.6,69.9 -74.8,106.9 -8.8,1.8 -14.6,2.4 -14.6,2.4 0,0 -95.8,-27.5 -203.9,-174.5 -99.2,-134.9 -291.5,-161.4 -408,-40.5 -10.2,10.6 -19.9,22.4 -28.8,35.3 0,0 0,0 0,0 -0.1,0.1 -0.2,0.2 -0.3,0.4 0,0 0,0.1 -0.1,0.1 -0.1,0.1 -0.1,0.2 -0.2,0.3 0,0 0,0 0,-0.1 0.1,-0.1 0.1,-0.2 0.2,-0.3 v 0 c 0.1,-0.3 0.3,-0.5 0.4,-0.8 0.2,-0.4 0.4,-0.9 0.7,-1.4 0.5,-1 1,-2.2 1.5,-3.4 0,0.1 -0.1,0.1 -0.1,0.2 -0.8,1.3 -1.4,2.4 -1.9,3.6 0,-0.1 0.1,-0.3 0.1,-0.4 0,0 0,0 0,0 8.6,-22.6 78.3,-181 254.8,-172.5 28.6,2.4 56.7,10.2 83.7,21.7 1.5,0.6 2.9,1.3 4.4,1.9 1.4,0.6 2.7,1.2 4.1,1.8 1.5,0.7 3.1,1.4 4.6,2.1 36.4,17.2 70.9,40.8 102.7,66.5 1.2,1 2.4,1.9 3.5,2.9 2.9,2.4 5.8,4.7 8.6,7.1 1.9,1.6 3.7,3.2 5.6,4.8 4.3,3.7 8.5,7.4 12.7,11.1 1.3,1.2 2.7,2.4 4,3.5 6.6,5.9 13,11.9 19.3,17.8 6.7,6.3 13.2,12.6 19.5,18.8 8.7,11.3 17.5,21.4 26.5,29.5 22.2,20 46.3,41.6 74.1,54 1,0.5 2,0.9 3,1.3 9.1,3.8 18.7,6.6 28.7,8 1.5,0.2 3,0.4 4.5,0.5 10.4,1 21.2,0.5 32.9,-1.7 1,-0.2 2,-0.4 3,-0.6 l 3,-0.6 c 1,-0.2 2,-0.5 3,-0.7 4.1,-1 8.3,-2.2 12.6,-3.6 0.8,-0.3 1.6,-0.5 2.4,-0.8 0.3,-0.1 0.5,-0.2 0.8,-0.3 1.5,-0.6 3,-1.1 4.4,-1.6 0,0 0,0 0,0 0.6,-0.2 1.2,-0.4 1.8,-0.7 0.9,-0.4 1.7,-0.7 2.5,-1 z"
                 stroke-linecap="round"
                 id="path20" />
            </g>
          </g>
        </g>
        <g
           transform="matrix(0.30608496,0,0,0.30608496,62.47194,0)"
           id="g33">
          <g
             paint-order="stroke"
             id="g32">
            <g
               transform="translate(-90.066921,-152.49608)"
               id="g23">
              <linearGradient
                 id="linearGradient48"
                 gradientUnits="userSpaceOnUse"
                 gradientTransform="matrix(0.9982,-0.06018481,0.06018481,0.9982,-36.2133,496.478)"
                 x1="627.09802"
                 y1="90.918602"
                 x2="882.2879"
                 y2="-39.450199">
                <stop
                   offset="1.410946%"
                   style="stop-color:rgb(218,5,229);stop-opacity: 1"
                   id="stop47" />
                <stop
                   offset="100%"
                   style="stop-color:rgb(23,2,23);stop-opacity: 1"
                   id="stop48" />
              </linearGradient>
              <path
                 style="opacity:1;fill:url(#SVGID_25_261341);fill-rule:nonzero;stroke:none;stroke-width:1;stroke-linecap:butt;stroke-linejoin:miter;stroke-miterlimit:4;stroke-dasharray:none;stroke-dashoffset:0"
                 paint-order="stroke"
                 transform="translate(-715.8,-447.49142)"
                 d="m 855.8,528.8 c 0,0 -93.5,-136 -234.8,-3.7 -8.4,-7.5 -16.4,-15.8 -25.7,-23.7 -6,-5.1 -13,-11.3 -19.5,-16.6 20.6,-47.7 51.8,-83 94.3,-112.3 74.3,-20.7 124.3,12 152.7,61.3 16.5,28.5 30.6,62.5 33,95 z"
                 stroke-linecap="round"
                 id="path23" />
            </g>
            <g
               transform="translate(0,0.05)"
               id="g26">
              <linearGradient
                 id="linearGradient51"
                 gradientUnits="userSpaceOnUse"
                 gradientTransform="matrix(0.9982,-0.06018481,0.06018481,0.9982,-36.2133,496.478)"
                 x1="969.82159"
                 y1="-14.572"
                 x2="659.72247"
                 y2="447.03671">
                <stop
                   offset="1.410946%"
                   style="stop-color:rgb(218,5,229);stop-opacity: 1"
                   id="stop49" />
                <stop
                   offset="49.65%"
                   style="stop-color:rgb(65,60,245);stop-opacity: 1"
                   id="stop50" />
                <stop
                   offset="100%"
                   style="stop-color:rgb(4,198,255);stop-opacity: 1"
                   id="stop51" />
              </linearGradient>
              <path
                 style="opacity:1;fill:url(#SVGID_26_261342);fill-rule:nonzero;stroke:none;stroke-width:1;stroke-linecap:butt;stroke-linejoin:miter;stroke-miterlimit:4;stroke-dasharray:none;stroke-dashoffset:0"
                 paint-order="stroke"
                 transform="translate(-805.86692,-600.03749)"
                 d="m 1102.1,603.8 c -1.8,115 -83.6,224.4 -193.4,258.7 -20,6.3 -40.8,9.9 -61.6,11.2 l -1.6,0.1 c 0,0 -121.6,21.6 -273.4,-110.9 -20.4,-17.8 -41.3,-38.3 -62.5,-62.1 90.1,86.4 179.1,76.5 251.8,32.4 17.4,-11.6 33,-26 45.8,-42.4 57.5,-74.3 65.2,-198.5 4.3,-273.5 -22.9,-28.3 -57.1,-44.8 -93.7,-42.2 -20,1.4 -39.4,8.4 -57.1,17.6 -15.4,8.1 -37.3,19.6 -48.1,33.7 2.1,-2.8 4.4,-5.6 6.7,-8.3 0.1,-0.2 0.3,-0.3 0.4,-0.5 31.1,-36.6 73.6,-63.2 120.1,-78.2 v 0 c 22.8,-7.4 46.5,-12 70.3,-13.7 36.5,-2.6 73.3,1.7 107.1,13.5 108.5,37.7 186.8,149.6 184.9,264.6 z"
                 stroke-linecap="round"
                 id="path26" />
            </g>
            <g
               transform="translate(31.25)"
               id="g29">
              <linearGradient
                 id="linearGradient54"
                 gradientUnits="userSpaceOnUse"
                 gradientTransform="matrix(1,0,0,-1,0,1200)"
                 x1="795.48297"
                 y1="273.39551"
                 x2="901.18512"
                 y2="867.7785">
                <stop
                   offset="1.7833849999999998%"
                   style="stop-color:rgb(53,99,203);stop-opacity: 1"
                   id="stop52" />
                <stop
                   offset="52.05%"
                   style="stop-color:rgb(120,30,209);stop-opacity: 1"
                   id="stop53" />
                <stop
                   offset="100%"
                   style="stop-color:rgb(218,5,229);stop-opacity: 1"
                   id="stop54" />
              </linearGradient>
              <path
                 style="opacity:1;fill:url(#SVGID_27_261343);fill-rule:nonzero;stroke:none;stroke-width:1;stroke-linecap:butt;stroke-linejoin:miter;stroke-miterlimit:4;stroke-dasharray:none;stroke-dashoffset:0"
                 paint-order="stroke"
                 transform="translate(-837.11692,-599.98749)"
                 d="m 1102.1,603.8 c -1.8,115 -83.6,224.4 -193.4,258.7 -20,6.3 -40.8,9.9 -61.6,11.2 l -1.6,0.1 c 0,0 -121.6,21.6 -273.4,-110.9 C 675.4,815 908.1,894.8 998,615.9 1056.6,432.7 890.9,300 739.7,339.3 c 22.8,-7.4 46.5,-12 70.3,-13.7 36.5,-2.6 73.3,1.7 107.1,13.5 108.6,37.8 186.9,149.7 185,264.7 z"
                 stroke-linecap="round"
                 id="path29" />
            </g>
            <g
               transform="translate(-81.616921,-126.98444)"
               id="g31">
              <linearGradient
                 id="linearGradient56"
                 gradientUnits="userSpaceOnUse"
                 gradientTransform="matrix(0.9982,-0.06018481,0.06018481,0.9982,-36.2133,496.478)"
                 x1="836.35211"
                 y1="24.915701"
                 x2="435.08511"
                 y2="102.3532">
                <stop
                   offset="1.410946%"
                   style="stop-color:rgb(218,5,229);stop-opacity: 1"
                   id="stop55" />
                <stop
                   offset="100%"
                   style="stop-color:rgb(23,2,23);stop-opacity: 1"
                   id="stop56" />
              </linearGradient>
              <path
                 style="opacity:1;fill:url(#SVGID_28_261344);fill-rule:nonzero;stroke:none;stroke-width:1;stroke-linecap:butt;stroke-linejoin:miter;stroke-miterlimit:4;stroke-dasharray:none;stroke-dashoffset:0"
                 paint-order="stroke"
                 transform="translate(-724.25,-473.00305)"
                 d="m 853.2,529.6 c 0,0 -90.9,-136.9 -232.2,-4.6 -8.4,-7.5 -16.4,-15.8 -25.7,-23.7 0,0 47.1,-89.6 176.5,-84.7 17,-0.4 34.4,6.4 51.1,17.2 21.3,26.6 27.8,63.4 30.3,95.8 z"
                 stroke-linecap="round"
                 id="path31" />
            </g>
          </g>
        </g>
      </g>
    </g>
    <g
       transform="matrix(0.50830527,0,0,0.50830527,101.90041,227.56831)"
       id="text-logo"
       style="fill:#bbb1cc;fill-opacity:1">
      <g
         paint-order="stroke"
         id="g35"
         style="fill:#bbb1cc;fill-opacity:1">
        <g
           id="text-logo-path-0"
           style="fill:#bbb1cc;fill-opacity:1">
          <path
             style="opacity:1;fill:#bbb1cc;fill-rule:nonzero;stroke:none;stroke-width:0;stroke-linecap:butt;stroke-linejoin:miter;stroke-miterlimit:4;stroke-dasharray:none;stroke-dashoffset:0;fill-opacity:1"
             paint-order="stroke"
             transform="translate(-213.935,15.48)"
             d="m 1.74,-4.73 v 0 q 0,-1.27 0.66,-2.6 0.66,-1.34 1.58,-2.46 v 0 L 15.71,-23.76 H 3.16 Q 2.81,-24.33 2.5,-25.3 2.19,-26.27 2.19,-27.34 v 0 q 0,-1.99 0.9,-2.85 0.89,-0.86 2.31,-0.86 v 0 h 19.03 q 2.24,1.84 2.24,4.88 v 0 q 0,1.27 -0.58,2.53 -0.59,1.25 -1.51,2.37 v 0 L 13,-7.3 h 13.07 q 0.35,0.58 0.65,1.54 0.3,0.95 0.3,2.02 v 0 q 0,2 -0.88,2.87 Q 25.25,0 23.81,0 V 0 H 3.74 Q 2.86,-0.72 2.3,-1.94 1.74,-3.16 1.74,-4.73 Z m 28.22,1.87 v 0 q 0,-0.73 0.2,-1.44 0.2,-0.71 0.47,-1.68 v 0 q 0.35,-1.37 0.98,-3.41 0.64,-2.04 1.41,-4.41 0.77,-2.36 1.63,-4.86 0.86,-2.51 1.63,-4.72 0.77,-2.22 1.41,-3.95 0.63,-1.73 0.98,-2.65 v 0 q 0.87,-0.5 2.63,-0.97 1.76,-0.48 3.55,-0.48 v 0 q 2.54,0 4.51,0.75 1.96,0.75 2.54,2.32 v 0 q 0.92,2.64 1.99,6.16 1.07,3.52 2.14,7.27 1.07,3.75 2.09,7.4 1.02,3.65 1.77,6.46 v 0 Q 59.27,-0.35 58.05,0.07 56.83,0.5 55.16,0.5 v 0 Q 53.94,0.5 53.09,0.3 52.25,0.1 51.71,-0.31 51.17,-0.72 50.84,-1.38 50.5,-2.04 50.25,-2.91 v 0 l -0.92,-3.51 h -9.21 q -0.4,1.51 -0.81,3.15 -0.41,1.63 -0.84,3.17 v 0 Q 37.75,0.15 36.97,0.32 36.18,0.5 35.06,0.5 v 0 q -2.59,0 -3.84,-0.89 -1.26,-0.88 -1.26,-2.47 z m 11.63,-10.46 v 0 h 6.32 q -0.72,-2.77 -1.45,-5.38 -0.74,-2.62 -1.36,-4.71 v 0 h -0.3 q -0.72,2.14 -1.61,4.77 -0.88,2.63 -1.6,5.32 z m 21.89,1.89 v 0 -19.47 q 0.57,-0.1 1.79,-0.29 1.22,-0.19 2.34,-0.19 v 0 q 1.17,0 2.07,0.19 0.89,0.19 1.5,0.65 0.61,0.46 0.91,1.27 0.3,0.81 0.3,2.13 v 0 15.56 q 0,2.44 1.36,3.82 1.36,1.38 3.5,1.38 v 0 q 2.19,0 3.51,-1.38 1.32,-1.38 1.32,-3.82 v 0 -19.32 q 0.57,-0.1 1.79,-0.29 1.22,-0.19 2.34,-0.19 v 0 q 1.17,0 2.07,0.19 0.9,0.19 1.51,0.65 0.61,0.46 0.92,1.27 0.31,0.81 0.31,2.13 v 0 15.71 q 0,2.76 -0.95,5.03 -0.94,2.27 -2.73,3.87 -1.78,1.61 -4.33,2.48 -2.55,0.87 -5.76,0.87 v 0 q -3.22,0 -5.77,-0.87 -2.55,-0.87 -4.33,-2.48 -1.78,-1.6 -2.73,-3.87 -0.94,-2.27 -0.94,-5.03 z m 31.6,-15.91 v 0 q 0,-1.99 0.89,-2.85 0.9,-0.86 2.32,-0.86 v 0 h 22.24 q 0.35,0.57 0.66,1.53 0.31,0.96 0.31,2.03 v 0 q 0,1.99 -0.9,2.86 -0.89,0.87 -2.31,0.87 v 0 h -5.68 V -0.2 q -0.57,0.15 -1.76,0.3 -1.18,0.15 -2.38,0.15 v 0 q -1.17,0 -2.05,-0.18 -0.88,-0.17 -1.49,-0.63 -0.61,-0.46 -0.93,-1.27 -0.31,-0.81 -0.31,-2.15 v 0 -19.78 h -7.64 q -0.35,-0.57 -0.66,-1.54 -0.31,-0.97 -0.31,-2.04 z m 27.89,11.83 v 0 q 0,-3.99 1.24,-7.04 1.25,-3.05 3.41,-5.12 2.17,-2.06 5.11,-3.13 2.94,-1.08 6.35,-1.08 v 0 q 3.41,0 6.35,1.08 2.94,1.07 5.13,3.13 2.19,2.07 3.44,5.13 1.24,3.07 1.24,7.03 v 0 q 0,3.98 -1.22,7.07 -1.22,3.09 -3.39,5.15 -2.16,2.07 -5.13,3.14 -2.96,1.07 -6.42,1.07 v 0 q -3.46,0 -6.43,-1.09 -2.96,-1.1 -5.1,-3.19 -2.14,-2.09 -3.36,-5.16 -1.22,-3.06 -1.22,-6.99 z m 9.16,0 v 0 q 0,4.63 1.89,6.93 1.9,2.3 5.06,2.3 v 0 q 3.21,0 5.09,-2.29 1.88,-2.29 1.88,-6.94 v 0 q 0,-4.59 -1.85,-6.88 -1.86,-2.29 -5.07,-2.29 v 0 q -3.16,0 -5.08,2.27 -1.92,2.26 -1.92,6.9 z m 27.37,12.6 v 0 l 1.49,-26 q 0.4,-0.67 1.78,-1.43 1.39,-0.76 3.88,-0.76 v 0 q 2.71,0 4.24,0.83 1.53,0.84 2.23,2.73 v 0 q 0.45,1.22 1,2.8 0.55,1.58 1.08,3.26 0.54,1.68 1.05,3.34 0.51,1.65 0.91,3 v 0 h 0.24 q 1.22,-4.28 2.46,-8.29 1.23,-4.01 2.25,-6.7 v 0 q 0.77,-0.4 1.97,-0.69 1.19,-0.28 2.66,-0.28 v 0 q 2.49,0 4.07,0.73 1.59,0.74 1.86,2.11 v 0 q 0.2,1.02 0.42,3.13 0.23,2.12 0.49,4.77 0.26,2.65 0.51,5.62 0.25,2.96 0.48,5.69 0.24,2.72 0.39,4.99 0.15,2.27 0.2,3.49 v 0 q -0.87,0.5 -1.82,0.73 -0.94,0.24 -2.41,0.24 v 0 q -1.95,0 -3.27,-0.66 -1.32,-0.66 -1.42,-2.6 v 0 q -0.29,-5.56 -0.38,-9.99 -0.09,-4.43 -0.24,-7.45 v 0 h -0.25 q -0.49,2 -1.48,5.01 -0.98,3.01 -2.35,7.69 v 0 q -0.67,0.58 -1.71,0.9 -1.03,0.32 -2.43,0.32 v 0 q -1.84,0 -3.03,-0.46 -1.2,-0.46 -1.55,-1.58 v 0 q -1.42,-4.48 -2.34,-7.26 -0.92,-2.77 -1.44,-4.86 v 0 h -0.25 q -0.15,3.01 -0.23,5.47 -0.07,2.47 -0.1,4.82 -0.02,2.36 -0.1,4.75 -0.07,2.39 -0.22,5.3 v 0 q -0.67,0.25 -1.74,0.42 -1.07,0.18 -2.14,0.18 v 0 q -2.25,0 -3.5,-0.71 -1.26,-0.71 -1.26,-2.6 z m 39.42,0.05 v 0 q 0,-0.73 0.2,-1.44 0.2,-0.71 0.47,-1.68 v 0 q 0.35,-1.37 0.99,-3.41 0.63,-2.04 1.4,-4.41 0.77,-2.36 1.63,-4.86 0.86,-2.51 1.64,-4.72 0.77,-2.22 1.4,-3.95 0.64,-1.73 0.99,-2.65 v 0 q 0.87,-0.5 2.62,-0.97 1.76,-0.48 3.55,-0.48 v 0 q 2.54,0 4.51,0.75 1.97,0.75 2.54,2.32 v 0 q 0.92,2.64 1.99,6.16 1.07,3.52 2.14,7.27 1.07,3.75 2.09,7.4 1.03,3.65 1.77,6.46 v 0 q -0.62,0.72 -1.84,1.14 -1.22,0.43 -2.89,0.43 v 0 q -1.22,0 -2.07,-0.2 -0.84,-0.2 -1.38,-0.61 -0.53,-0.41 -0.87,-1.07 -0.34,-0.66 -0.58,-1.53 v 0 l -0.93,-3.51 h -9.21 q -0.4,1.51 -0.81,3.15 -0.41,1.63 -0.83,3.17 v 0 q -0.73,0.25 -1.51,0.42 -0.78,0.18 -1.91,0.18 v 0 q -2.58,0 -3.84,-0.89 -1.26,-0.88 -1.26,-2.47 z m 11.63,-10.46 v 0 h 6.32 q -0.72,-2.77 -1.45,-5.38 -0.74,-2.62 -1.36,-4.71 v 0 h -0.3 q -0.72,2.14 -1.6,4.77 -0.89,2.63 -1.61,5.32 z m 18.3,-14.02 v 0 q 0,-1.99 0.9,-2.85 0.9,-0.86 2.31,-0.86 v 0 h 22.24 q 0.35,0.57 0.66,1.53 0.31,0.96 0.31,2.03 v 0 q 0,1.99 -0.89,2.86 -0.9,0.87 -2.32,0.87 v 0 h -5.68 V -0.2 q -0.57,0.15 -1.75,0.3 -1.18,0.15 -2.38,0.15 v 0 q -1.17,0 -2.05,-0.18 -0.89,-0.17 -1.5,-0.63 -0.61,-0.46 -0.92,-1.27 -0.31,-0.81 -0.31,-2.15 v 0 -19.78 h -7.65 q -0.34,-0.57 -0.66,-1.54 -0.31,-0.97 -0.31,-2.04 z m 29.04,-1.27 v 0 q 0.67,-0.92 1.82,-1.68 1.14,-0.76 2.84,-0.76 v 0 q 1.99,0 3.23,0.81 1.25,0.81 2.37,3.05 v 0 l 4.23,8.51 h 0.3 q 0.72,-1.57 1.26,-2.87 0.53,-1.31 1.04,-2.61 0.51,-1.29 1.07,-2.7 0.57,-1.4 1.29,-3.22 v 0 q 0.92,-0.45 2.04,-0.71 1.12,-0.26 2.14,-0.26 v 0 q 1.79,0 3.04,0.94 1.24,0.95 1.24,2.82 v 0 q 0,0.62 -0.26,1.49 -0.26,0.87 -1.17,2.63 -0.91,1.75 -2.67,4.77 -1.77,3.01 -4.79,7.84 v 0 10.36 q -0.57,0.15 -1.73,0.3 -1.15,0.15 -2.28,0.15 v 0 q -2.34,0 -3.52,-0.79 -1.18,-0.78 -1.18,-3.34 v 0 -6.88 q -1.27,-1.89 -2.75,-4.18 -1.49,-2.29 -2.9,-4.7 -1.42,-2.4 -2.66,-4.71 -1.23,-2.32 -2,-4.26 z m 30.26,23.88 v 0 q 0,-1.27 0.65,-2.6 0.66,-1.34 1.59,-2.46 v 0 l 11.73,-13.97 h -12.56 q -0.34,-0.57 -0.66,-1.54 -0.31,-0.97 -0.31,-2.04 v 0 q 0,-1.99 0.9,-2.85 0.9,-0.86 2.32,-0.86 v 0 h 19.02 q 2.24,1.84 2.24,4.88 v 0 q 0,1.27 -0.58,2.53 -0.59,1.25 -1.51,2.37 v 0 L 299.4,-7.3 h 13.07 q 0.35,0.58 0.65,1.54 0.3,0.95 0.3,2.02 v 0 q 0,2 -0.88,2.87 Q 311.65,0 310.21,0 v 0 h -20.07 q -0.87,-0.72 -1.43,-1.94 -0.56,-1.22 -0.56,-2.79 z m 29.95,-6.7 v 0 -19.47 q 0.58,-0.1 1.8,-0.29 1.22,-0.19 2.34,-0.19 v 0 q 1.17,0 2.06,0.19 0.9,0.19 1.51,0.65 0.61,0.46 0.91,1.27 0.3,0.81 0.3,2.13 v 0 15.56 q 0,2.44 1.35,3.82 1.36,1.38 3.5,1.38 v 0 q 2.19,0 3.51,-1.38 1.32,-1.38 1.32,-3.82 v 0 -19.32 q 0.58,-0.1 1.8,-0.29 1.22,-0.19 2.34,-0.19 v 0 q 1.17,0 2.07,0.19 0.89,0.19 1.5,0.65 0.61,0.46 0.92,1.27 0.31,0.81 0.31,2.13 v 0 15.71 q 0,2.76 -0.94,5.03 -0.95,2.27 -2.73,3.87 -1.78,1.61 -4.33,2.48 -2.55,0.87 -5.77,0.87 v 0 q -3.21,0 -5.76,-0.87 -2.55,-0.87 -4.33,-2.48 -1.78,-1.6 -2.73,-3.87 -0.95,-2.27 -0.95,-5.03 z m 30.98,7.69 v 0 q 0,-1.02 0.29,-1.78 0.28,-0.76 0.68,-1.2 v 0 q 0.97,0.2 1.66,0.27 0.68,0.07 1.5,0.07 v 0 q 2,0 2.86,-0.99 0.86,-1 0.86,-2.94 v 0 -20.59 q 0.57,-0.1 1.79,-0.29 1.22,-0.19 2.34,-0.19 v 0 q 1.17,0 2.07,0.19 0.89,0.19 1.5,0.65 0.61,0.46 0.92,1.27 0.32,0.81 0.32,2.13 v 0 18.87 q 0,4.53 -2.61,6.81 -2.6,2.28 -7.65,2.28 v 0 q -2.64,0 -4.29,-0.82 v 0 q -1.17,-0.57 -1.7,-1.53 -0.54,-0.96 -0.54,-2.21 z m 21.04,-0.39 v 0 q 0,-2.15 1.34,-3.58 1.33,-1.43 3.62,-1.43 v 0 q 2.29,0 3.61,1.43 1.32,1.43 1.32,3.58 v 0 q 0,2.14 -1.32,3.57 -1.32,1.43 -3.61,1.43 v 0 q -2.29,0 -3.62,-1.43 -1.34,-1.43 -1.34,-3.57 z m 12.95,1.27 v 0 q 0,-0.73 0.2,-1.44 0.2,-0.71 0.48,-1.68 v 0 q 0.34,-1.37 0.98,-3.41 0.63,-2.04 1.41,-4.41 0.77,-2.36 1.63,-4.86 0.86,-2.51 1.63,-4.72 0.77,-2.22 1.4,-3.95 0.64,-1.73 0.99,-2.65 v 0 q 0.87,-0.5 2.63,-0.97 1.75,-0.48 3.54,-0.48 v 0 q 2.54,0 4.51,0.75 1.97,0.75 2.54,2.32 v 0 q 0.92,2.64 1.99,6.16 1.07,3.52 2.15,7.27 1.07,3.75 2.09,7.4 1.02,3.65 1.77,6.46 v 0 q -0.63,0.72 -1.85,1.14 -1.22,0.43 -2.89,0.43 v 0 q -1.22,0 -2.06,-0.2 -0.85,-0.2 -1.39,-0.61 -0.53,-0.41 -0.87,-1.07 -0.33,-0.66 -0.58,-1.53 v 0 l -0.92,-3.51 h -9.22 q -0.4,1.51 -0.81,3.15 -0.41,1.63 -0.83,3.17 v 0 q -0.72,0.25 -1.51,0.42 -0.78,0.18 -1.9,0.18 v 0 q -2.59,0 -3.85,-0.89 -1.26,-0.88 -1.26,-2.47 z m 11.63,-10.46 v 0 h 6.33 q -0.72,-2.77 -1.46,-5.38 -0.73,-2.62 -1.36,-4.71 v 0 h -0.3 q -0.72,2.14 -1.6,4.77 -0.89,2.63 -1.61,5.32 z m 22.49,9.34 v 0 -26.92 q 0.57,-0.1 1.79,-0.29 1.22,-0.19 2.34,-0.19 v 0 q 1.17,0 2.07,0.19 0.9,0.19 1.51,0.65 0.61,0.46 0.92,1.27 0.31,0.81 0.31,2.13 v 0 26.94 q -0.57,0.15 -1.77,0.3 -1.19,0.15 -2.36,0.15 v 0 q -1.18,0 -2.07,-0.18 -0.9,-0.17 -1.51,-0.63 -0.61,-0.46 -0.92,-1.27 -0.31,-0.81 -0.31,-2.15 z"
             stroke-linecap="round"
             id="path34" />
        </g>
      </g>
    </g>
    <g
       transform="matrix(0.50830527,0,0,0.50830527,101.98668,250.92133)"
       id="tagline-354765e8-8ece-4b91-a144-770982e5ba59-logo">
      <g
         paint-order="stroke"
         id="g36">
        <g
           id="tagline-354765e8-8ece-4b91-a144-770982e5ba59-logo-path-0">
          <path
             style="opacity:1;fill:#bbb1cc;fill-rule:nonzero;stroke:none;stroke-width:0;stroke-linecap:butt;stroke-linejoin:miter;stroke-miterlimit:4;stroke-dasharray:none;stroke-dashoffset:0"
             paint-order="stroke"
             transform="translate(-222.675,4.305)"
             d="m 6.72,-10.75 v -1.09 H 0.13 v 1.09 H 2.85 V 0 h 1.18 v -10.75 z m 4.8,2.97 v -1.18 c -1.28,0 -2.11,0.61 -2.53,1.47 V -8.77 H 7.87 V 0 h 1.19 v -5.28 c 0,-1.44 1.12,-2.43 2.46,-2.5 z M 21.79,0 v -8.77 h -1.12 v 1.73 c -0.03,-0.1 -0.86,-1.92 -3.45,-1.92 -2.66,0 -4.68,2.11 -4.68,4.54 0,1.54 0.74,2.6 0.84,2.72 1.34,1.51 2.81,1.92 3.9,1.92 1.34,0 2.75,-0.64 3.39,-1.92 V 0 Z m -1.12,-4.35 c 0,1.79 -1.5,3.42 -3.39,3.42 -1.89,0 -3.55,-1.5 -3.55,-3.39 0,-1.92 1.57,-3.49 3.52,-3.49 1.95,0 3.42,1.54 3.42,3.46 z M 31.74,0 v -4.96 c 0,-1.22 -0.41,-2.24 -1.18,-2.91 -0.7,-0.67 -1.66,-1.09 -2.72,-1.09 -1.34,0 -2.18,0.74 -2.72,1.5 V -8.77 H 24 V 0 h 1.18 v -4.93 c 0,-0.96 0.23,-1.66 0.74,-2.14 0.48,-0.45 1.12,-0.74 1.89,-0.74 1.69,0 2.75,1.22 2.75,2.95 V 0 Z m 6.85,-2.59 c 0,-0.87 -0.38,-1.63 -1.34,-2.11 -0.61,-0.29 -1.22,-0.45 -1.86,-0.71 -0.51,-0.19 -0.8,-0.67 -0.8,-1.18 0,-0.74 0.61,-1.22 1.25,-1.22 0.74,0 1.34,0.48 1.34,1.22 h 1.19 c 0,-1.28 -1.12,-2.37 -2.43,-2.37 -1.41,0 -2.53,1.09 -2.53,2.46 0,0.93 0.51,1.54 1.05,1.92 0.42,0.26 1.51,0.58 1.76,0.68 1.09,0.38 1.19,1.12 1.19,1.5 0,0.9 -0.67,1.47 -1.54,1.47 -0.89,0 -1.6,-0.73 -1.6,-1.66 h -1.18 c 0,0.03 -0.03,0.09 -0.03,0.13 0,1.56 1.37,2.68 2.68,2.68 1.7,0 2.85,-1.21 2.85,-2.81 z m 5.51,-5.09 v -1.09 h -2.18 c 0,-1.47 0.61,-1.98 2.14,-1.98 v -1.09 c -2.01,0 -3.32,0.83 -3.32,3.07 h -1.38 v 1.09 h 1.38 V 0 h 1.18 v -7.68 z m 10.01,3.26 c 0,-2.43 -2.14,-4.54 -4.54,-4.54 -2.53,0 -4.61,2.05 -4.61,4.64 0,2.56 2.18,4.54 4.61,4.54 2.59,0 4.54,-2.24 4.54,-4.64 z m -1.18,-0.03 c 0,1.95 -1.44,3.52 -3.36,3.52 -1.86,0 -3.43,-1.5 -3.43,-3.39 0,-1.89 1.48,-3.49 3.4,-3.49 1.82,0 3.39,1.47 3.39,3.36 z m 6.59,-3.33 v -1.18 c -1.28,0 -2.11,0.61 -2.53,1.47 V -8.77 H 55.87 V 0 h 1.19 v -5.28 c 0,-1.44 1.12,-2.43 2.46,-2.5 z M 73.89,0 v -5.06 c 0,-0.99 -0.16,-1.92 -0.9,-2.62 -0.73,-0.7 -1.6,-1.28 -2.65,-1.28 -1.25,0 -2.53,0.7 -2.95,1.66 -0.61,-0.99 -1.76,-1.66 -3.04,-1.66 -1.85,0 -2.3,1.34 -2.33,1.34 0,0 -0.04,-0.12 -0.04,-0.28 0,-0.32 0.04,-0.87 0.04,-0.87 H 60.9 V 0 h 1.18 v -5.41 c 0,-1.44 0.96,-2.4 2.34,-2.4 1.34,0 2.36,1.09 2.36,2.56 V 0 h 1.19 v -5.44 c 0,-1.47 1.05,-2.37 2.33,-2.37 1.57,0 2.4,1.31 2.4,2.69 V 0 Z m 11.1,0 v -8.77 h -1.12 v 1.73 c -0.03,-0.1 -0.86,-1.92 -3.45,-1.92 -2.66,0 -4.68,2.11 -4.68,4.54 0,1.54 0.74,2.6 0.84,2.72 1.34,1.51 2.81,1.92 3.9,1.92 1.34,0 2.75,-0.64 3.39,-1.92 V 0 Z m -1.12,-4.35 c 0,1.79 -1.5,3.42 -3.39,3.42 -1.89,0 -3.55,-1.5 -3.55,-3.39 0,-1.92 1.57,-3.49 3.52,-3.49 1.95,0 3.42,1.54 3.42,3.46 z m 7.55,-3.33 v -1.09 h -2.04 v -3.07 h -1.19 v 3.07 h -1.82 v 1.09 h 1.82 V 0 h 1.19 v -7.68 z m 2.53,-2.14 v -2.02 h -1.18 v 2.02 z m 0,9.82 V -8.77 H 92.77 V 0 Z m 10.98,-4.42 c 0,-2.43 -2.15,-4.54 -4.55,-4.54 -2.52,0 -4.6,2.05 -4.6,4.64 0,2.56 2.17,4.54 4.6,4.54 2.6,0 4.55,-2.24 4.55,-4.64 z m -1.19,-0.03 c 0,1.95 -1.44,3.52 -3.36,3.52 -1.85,0 -3.42,-1.5 -3.42,-3.39 0,-1.89 1.47,-3.49 3.39,-3.49 1.83,0 3.39,1.47 3.39,3.36 z M 114.43,0 v -4.96 c 0,-1.22 -0.41,-2.24 -1.18,-2.91 -0.71,-0.67 -1.67,-1.09 -2.72,-1.09 -1.35,0 -2.18,0.74 -2.72,1.5 v -1.31 h -1.12 V 0 h 1.18 v -4.93 c 0,-0.96 0.23,-1.66 0.74,-2.14 0.48,-0.45 1.12,-0.74 1.89,-0.74 1.69,0 2.75,1.22 2.75,2.95 V 0 Z m 12.42,-10.75 v -1.09 h -6.59 v 1.09 h 2.72 V 0 h 1.18 V -10.75 Z M 135.74,0 v -4.93 c 0,-2.37 -1.72,-4.03 -3.9,-4.03 -1.15,0 -2.14,0.51 -2.66,1.47 v -4.35 H 128 V 0 h 1.18 v -5.09 c 0,-1.89 1.35,-2.72 2.63,-2.72 1.6,0 2.75,1.12 2.75,2.95 V 0 Z m 5.73,-7.78 v -1.18 c -1.28,0 -2.11,0.61 -2.53,1.47 v -1.28 h -1.12 V 0 h 1.19 v -5.28 c 0,-1.44 1.12,-2.43 2.46,-2.5 z m 10.18,3.36 c 0,-2.43 -2.15,-4.54 -4.55,-4.54 -2.52,0 -4.6,2.05 -4.6,4.64 0,2.56 2.17,4.54 4.6,4.54 2.6,0 4.55,-2.24 4.55,-4.64 z m -1.19,-0.03 c 0,1.95 -1.44,3.52 -3.36,3.52 -1.85,0 -3.42,-1.5 -3.42,-3.39 0,-1.89 1.47,-3.49 3.39,-3.49 1.83,0 3.39,1.47 3.39,3.36 z M 161.12,0 v -8.77 h -1.18 v 4.83 c 0,1.7 -1,3.01 -2.69,3.01 -1.73,0 -2.66,-1.31 -2.66,-2.85 v -4.99 h -1.18 v 4.99 c 0,1.99 0.67,2.5 0.96,2.79 0.64,0.64 1.41,1.21 2.75,1.21 1.25,0 2.27,-0.48 2.88,-1.6 v 1.41 z m 10.85,-0.96 v -7.81 h -1.12 v 1.73 c -0.42,-0.7 -1.41,-1.92 -3.49,-1.92 -2.62,0 -4.48,2.14 -4.48,4.61 0,2.62 2.11,4.57 4.54,4.57 1.76,0 2.98,-0.96 3.43,-1.98 v 0.42 c 0,1.02 -0.13,1.82 -0.55,2.36 -0.64,0.87 -1.66,1.28 -2.72,1.28 -1.4,0 -2.56,-0.76 -3.2,-2.08 h -1.18 c 0.54,1.96 2.37,3.2 4.32,3.2 1.31,0 2.75,-0.51 3.71,-1.76 0.61,-0.73 0.74,-1.56 0.74,-2.62 z m -1.15,-3.42 c 0,1.76 -1.38,3.45 -3.36,3.45 -1.89,0 -3.4,-1.47 -3.4,-3.52 0,-1.79 1.38,-3.36 3.27,-3.36 1.95,0 3.49,1.51 3.49,3.43 z M 181.92,0 v -4.93 c 0,-2.37 -1.73,-4.03 -3.9,-4.03 -1.16,0 -2.15,0.51 -2.66,1.47 v -4.35 h -1.18 V 0 h 1.18 v -5.09 c 0,-1.89 1.34,-2.72 2.62,-2.72 1.6,0 2.76,1.12 2.76,2.95 V 0 Z m 17.38,0 -5.09,-11.84 H 192.9 L 187.81,0 h 1.28 l 1.69,-3.97 h 5.51 L 198.02,0 Z m -3.46,-5.06 h -4.58 l 2.31,-5.4 z M 208.19,0 v -8.77 h -1.18 v 4.83 c 0,1.7 -0.99,3.01 -2.69,3.01 -1.73,0 -2.66,-1.31 -2.66,-2.85 v -4.99 h -1.18 v 4.99 c 0,1.99 0.67,2.5 0.96,2.79 0.64,0.64 1.41,1.21 2.75,1.21 1.25,0 2.27,-0.48 2.88,-1.6 v 1.41 z m 6.34,-7.68 v -1.09 h -2.05 v -3.07 h -1.18 v 3.07 h -1.83 v 1.09 h 1.83 V 0 h 1.18 v -7.68 z m 10.14,3.26 c 0,-2.43 -2.14,-4.54 -4.54,-4.54 -2.53,0 -4.61,2.05 -4.61,4.64 0,2.56 2.18,4.54 4.61,4.54 2.59,0 4.54,-2.24 4.54,-4.64 z m -1.18,-0.03 c 0,1.95 -1.44,3.52 -3.36,3.52 -1.86,0 -3.43,-1.5 -3.43,-3.39 0,-1.89 1.48,-3.49 3.4,-3.49 1.82,0 3.39,1.47 3.39,3.36 z M 239.42,0 v -5.06 c 0,-0.99 -0.16,-1.92 -0.89,-2.62 -0.74,-0.7 -1.6,-1.28 -2.66,-1.28 -1.25,0 -2.53,0.7 -2.94,1.66 -0.61,-0.99 -1.76,-1.66 -3.04,-1.66 -1.86,0 -2.31,1.34 -2.34,1.34 0,0 -0.03,-0.12 -0.03,-0.28 0,-0.32 0.03,-0.87 0.03,-0.87 h -1.12 V 0 h 1.19 v -5.41 c 0,-1.44 0.96,-2.4 2.33,-2.4 1.35,0 2.37,1.09 2.37,2.56 V 0 h 1.18 v -5.44 c 0,-1.47 1.06,-2.37 2.34,-2.37 1.57,0 2.4,1.31 2.4,2.69 V 0 Z m 11.11,0 v -8.77 h -1.12 v 1.73 c -0.03,-0.1 -0.87,-1.92 -3.46,-1.92 -2.65,0 -4.67,2.11 -4.67,4.54 0,1.54 0.74,2.6 0.83,2.72 1.35,1.51 2.82,1.92 3.91,1.92 1.34,0 2.75,-0.64 3.39,-1.92 V 0 Z m -1.12,-4.35 c 0,1.79 -1.51,3.42 -3.39,3.42 -1.89,0 -3.56,-1.5 -3.56,-3.39 0,-1.92 1.57,-3.49 3.52,-3.49 1.96,0 3.43,1.54 3.43,3.46 z m 7.55,-3.33 v -1.09 h -2.05 v -3.07 h -1.18 v 3.07 h -1.83 v 1.09 h 1.83 V 0 h 1.18 v -7.68 z m 2.53,-2.14 v -2.02 h -1.19 v 2.02 z m 0,9.82 V -8.77 H 258.3 V 0 Z m 10.97,-4.42 c 0,-2.43 -2.14,-4.54 -4.54,-4.54 -2.53,0 -4.61,2.05 -4.61,4.64 0,2.56 2.18,4.54 4.61,4.54 2.59,0 4.54,-2.24 4.54,-4.64 z m -1.18,-0.03 c 0,1.95 -1.44,3.52 -3.36,3.52 -1.86,0 -3.42,-1.5 -3.42,-3.39 0,-1.89 1.47,-3.49 3.39,-3.49 1.82,0 3.39,1.47 3.39,3.36 z M 279.97,0 v -4.96 c 0,-1.22 -0.42,-2.24 -1.19,-2.91 -0.7,-0.67 -1.66,-1.09 -2.72,-1.09 -1.34,0 -2.17,0.74 -2.72,1.5 v -1.31 h -1.12 V 0 h 1.19 v -4.93 c 0,-0.96 0.22,-1.66 0.73,-2.14 0.48,-0.45 1.12,-0.74 1.89,-0.74 1.7,0 2.75,1.22 2.75,2.95 V 0 Z m 3.87,0 v -2.02 h -1.18 V 0 Z m 13.18,-10.75 v -1.09 h -6.59 v 1.09 h 2.72 V 0 h 1.19 V -10.75 Z M 305.92,0 v -4.93 c 0,-2.37 -1.73,-4.03 -3.9,-4.03 -1.16,0 -2.15,0.51 -2.66,1.47 v -4.35 h -1.18 V 0 h 1.18 v -5.09 c 0,-1.89 1.34,-2.72 2.62,-2.72 1.6,0 2.76,1.12 2.76,2.95 V 0 Z m 10.85,-3.97 c -0.03,-1.25 -0.26,-2.43 -1.15,-3.42 -0.87,-0.96 -2.05,-1.57 -3.4,-1.57 -2.59,0 -4.57,2.08 -4.57,4.61 0,2.59 2.08,4.57 4.61,4.57 1.88,0 3.61,-1.31 4.25,-3.07 h -1.25 c -0.48,1.19 -1.88,1.92 -3.1,1.92 -1.76,0 -3.3,-1.5 -3.3,-3.04 z m -1.19,-1.05 h -6.75 c 0.32,-1.57 1.67,-2.79 3.39,-2.79 1.6,0 3.08,1.22 3.36,2.79 z m 13.83,-5.73 v -1.09 h -6.02 V 0 h 1.19 v -5.41 h 4.64 V -6.5 h -4.64 v -4.25 z M 338.88,0 v -8.77 h -1.18 v 4.83 c 0,1.7 -1,3.01 -2.69,3.01 -1.73,0 -2.66,-1.31 -2.66,-2.85 v -4.99 h -1.18 v 4.99 c 0,1.99 0.67,2.5 0.96,2.79 0.64,0.64 1.41,1.21 2.75,1.21 1.25,0 2.27,-0.48 2.88,-1.6 v 1.41 z m 6.34,-7.68 v -1.09 h -2.05 v -3.07 h -1.19 v 3.07 h -1.82 v 1.09 h 1.82 V 0 h 1.19 V -7.68 Z M 354.27,0 v -8.77 h -1.18 v 4.83 c 0,1.7 -0.99,3.01 -2.69,3.01 -1.73,0 -2.66,-1.31 -2.66,-2.85 v -4.99 h -1.18 v 4.99 c 0,1.99 0.67,2.5 0.96,2.79 0.64,0.64 1.41,1.21 2.75,1.21 1.25,0 2.27,-0.48 2.88,-1.6 v 1.41 z m 5.76,-7.78 v -1.18 c -1.28,0 -2.11,0.61 -2.53,1.47 v -1.28 h -1.12 V 0 h 1.19 v -5.28 c 0,-1.44 1.12,-2.43 2.46,-2.5 z m 10.15,3.81 c -0.04,-1.25 -0.26,-2.43 -1.16,-3.42 -0.86,-0.96 -2.04,-1.57 -3.39,-1.57 -2.59,0 -4.57,2.08 -4.57,4.61 0,2.59 2.08,4.57 4.6,4.57 1.89,0 3.62,-1.31 4.26,-3.07 h -1.25 c -0.48,1.19 -1.89,1.92 -3.1,1.92 -1.76,0 -3.3,-1.5 -3.3,-3.04 z m -1.19,-1.05 h -6.75 c 0.32,-1.57 1.66,-2.79 3.39,-2.79 1.6,0 3.07,1.22 3.36,2.79 z m 8.8,-4.8 v -2.02 h -1.18 v 2.02 z m 0,9.82 v -8.77 h -1.18 V 0 Z m 6.95,-2.59 c 0,-0.87 -0.39,-1.63 -1.35,-2.11 -0.61,-0.29 -1.21,-0.45 -1.85,-0.71 -0.52,-0.19 -0.8,-0.67 -0.8,-1.18 0,-0.74 0.6,-1.22 1.24,-1.22 0.74,0 1.35,0.48 1.35,1.22 h 1.18 c 0,-1.28 -1.12,-2.37 -2.43,-2.37 -1.41,0 -2.53,1.09 -2.53,2.46 0,0.93 0.51,1.54 1.06,1.92 0.41,0.26 1.5,0.58 1.76,0.68 1.09,0.38 1.18,1.12 1.18,1.5 0,0.9 -0.67,1.47 -1.53,1.47 -0.9,0 -1.6,-0.73 -1.6,-1.66 h -1.19 c 0,0.03 -0.03,0.09 -0.03,0.13 0,1.56 1.38,2.68 2.69,2.68 1.69,0 2.85,-1.21 2.85,-2.81 z m 17.5,-0.51 h -1.34 c -0.9,1.31 -2.5,2.17 -4.1,2.17 -2.78,0 -5.02,-2.4 -5.02,-5.02 0,-2.66 2.33,-4.93 4.96,-4.93 1.56,0 3.23,0.74 4.12,2.08 h 1.32 c -0.8,-1.79 -3.08,-3.23 -5.48,-3.23 -3.36,0 -6.11,2.75 -6.11,6.08 0,3.39 2.69,6.17 6.21,6.17 2.37,0 4.38,-1.44 5.44,-3.32 z m 10.62,-1.32 c 0,-2.43 -2.14,-4.54 -4.54,-4.54 -2.53,0 -4.61,2.05 -4.61,4.64 0,2.56 2.18,4.54 4.61,4.54 2.59,0 4.54,-2.24 4.54,-4.64 z m -1.18,-0.03 c 0,1.95 -1.44,3.52 -3.36,3.52 -1.86,0 -3.42,-1.5 -3.42,-3.39 0,-1.89 1.47,-3.49 3.39,-3.49 1.82,0 3.39,1.47 3.39,3.36 z M 423.55,0 v -11.84 h -1.18 v 4.64 c -0.45,-0.86 -1.7,-1.76 -3.39,-1.76 -2.6,0 -4.71,2.02 -4.71,4.58 0,2.68 2.37,4.6 4.67,4.6 1.76,0 2.69,-0.73 3.49,-1.85 V 0 Z m -1.15,-4.42 c 0,1.89 -1.57,3.49 -3.46,3.49 -1.95,0 -3.48,-1.6 -3.48,-3.49 0,-1.85 1.56,-3.39 3.45,-3.39 1.92,0 3.49,1.47 3.49,3.39 z m 12.1,0.45 c -0.04,-1.25 -0.26,-2.43 -1.16,-3.42 -0.86,-0.96 -2.04,-1.57 -3.39,-1.57 -2.59,0 -4.57,2.08 -4.57,4.61 0,2.59 2.08,4.57 4.6,4.57 1.89,0 3.62,-1.31 4.26,-3.07 h -1.25 c -0.48,1.19 -1.89,1.92 -3.1,1.92 -1.76,0 -3.3,-1.5 -3.3,-3.04 z m -1.19,-1.05 h -6.75 c 0.32,-1.57 1.66,-2.79 3.39,-2.79 1.6,0 3.07,1.22 3.36,2.79 z M 445.22,0 v -11.84 h -1.19 v 4.64 c -0.45,-0.86 -1.69,-1.76 -3.39,-1.76 -2.59,0 -4.7,2.02 -4.7,4.58 0,2.68 2.36,4.6 4.67,4.6 1.76,0 2.69,-0.73 3.49,-1.85 V 0 Z m -1.16,-4.42 c 0,1.89 -1.56,3.49 -3.45,3.49 -1.95,0 -3.49,-1.6 -3.49,-3.49 0,-1.85 1.57,-3.39 3.46,-3.39 1.92,0 3.48,1.47 3.48,3.39 z"
             stroke-linecap="round"
             id="path35" />
        </g>
      </g>
    </g>
  </g>
</svg>
