<?xml version="1.0" encoding="UTF-8" standalone="no"?>
<!-- Created with Inkscape (http://www.inkscape.org/) -->

<svg
   width="155.69878mm"
   height="85.608345mm"
   viewBox="0 0 155.69877 85.608347"
   version="1.1"
   id="svg1"
   inkscape:version="1.4 (e7c3feb1, 2024-10-09)"
   sodipodi:docname="logo-image.svg"
   xmlns:inkscape="http://www.inkscape.org/namespaces/inkscape"
   xmlns:sodipodi="http://sodipodi.sourceforge.net/DTD/sodipodi-0.dtd"
   xmlns="http://www.w3.org/2000/svg"
   xmlns:svg="http://www.w3.org/2000/svg">
  <sodipodi:namedview
     id="namedview1"
     pagecolor="#ffffff"
     bordercolor="#000000"
     borderopacity="0.25"
     inkscape:showpageshadow="2"
     inkscape:pageopacity="0.0"
     inkscape:pagecheckerboard="0"
     inkscape:deskcolor="#d1d1d1"
     inkscape:document-units="mm"
     inkscape:clip-to-page="false"
     inkscape:zoom="0.31678332"
     inkscape:cx="500.342"
     inkscape:cy="340.92704"
     inkscape:window-width="1624"
     inkscape:window-height="1013"
     inkscape:window-x="221"
     inkscape:window-y="44"
     inkscape:window-maximized="0"
     inkscape:current-layer="layer1" />
  <defs
     id="defs1">
    <linearGradient
       id="SVGID_21_261337"
       gradientUnits="userSpaceOnUse"
       x1="81.153297"
       y1="616.02472"
       x2="537.75531"
       y2="668.82922">
<stop
   offset="0%"
   style="stop-color:rgb(50,23,99);stop-opacity: 1"
   id="stop1" />

<stop
   offset="52.42%"
   style="stop-color:rgb(122,15,174);stop-opacity: 1"
   id="stop2" />

</linearGradient>
    <linearGradient
       id="SVGID_22_261338"
       gradientUnits="userSpaceOnUse"
       x1="107.7547"
       y1="696.21667"
       x2="509.7182"
       y2="558.27362">
<stop
   offset="0%"
   style="stop-color:rgb(50,23,99);stop-opacity: 1"
   id="stop3" />

<stop
   offset="41.699999999999996%"
   style="stop-color:rgb(122,15,174);stop-opacity: 1"
   id="stop4" />

<stop
   offset="93.67%"
   style="stop-color:rgb(50,23,99);stop-opacity: 1"
   id="stop5" />

</linearGradient>
    <linearGradient
       id="SVGID_23_261339"
       gradientUnits="userSpaceOnUse"
       x1="-1476.0514"
       y1="1305.2577"
       x2="1801.2595"
       y2="97.827301">
<stop
   offset="0%"
   style="stop-color:rgb(48,50,145);stop-opacity: 1"
   id="stop7" />

<stop
   offset="15.989999999999998%"
   style="stop-color:rgb(44,59,167);stop-opacity: 1"
   id="stop8" />

<stop
   offset="49.03%"
   style="stop-color:rgb(35,83,222);stop-opacity: 1"
   id="stop9" />

<stop
   offset="59.99%"
   style="stop-color:rgb(32,92,242);stop-opacity: 1"
   id="stop10" />

<stop
   offset="61.629999999999995%"
   style="stop-color:rgb(36,82,219);stop-opacity: 1"
   id="stop11" />

<stop
   offset="64.05999999999999%"
   style="stop-color:rgb(40,70,192);stop-opacity: 1"
   id="stop12" />

<stop
   offset="66.71000000000001%"
   style="stop-color:rgb(44,61,171);stop-opacity: 1"
   id="stop13" />

<stop
   offset="69.67%"
   style="stop-color:rgb(46,55,156);stop-opacity: 1"
   id="stop14" />

<stop
   offset="73.16%"
   style="stop-color:rgb(48,51,148);stop-opacity: 1"
   id="stop15" />

<stop
   offset="78.57%"
   style="stop-color:rgb(48,50,145);stop-opacity: 1"
   id="stop16" />

</linearGradient>
    <linearGradient
       id="SVGID_24_261340"
       gradientUnits="userSpaceOnUse"
       x1="-53.0177"
       y1="801.51379"
       x2="1061.1899"
       y2="343.724">
<stop
   offset="0%"
   style="stop-color:rgb(48,50,145);stop-opacity: 1"
   id="stop18" />

<stop
   offset="47.599999999999994%"
   style="stop-color:rgb(62,88,232);stop-opacity: 1"
   id="stop19" />

<stop
   offset="100%"
   style="stop-color:rgb(48,50,145);stop-opacity: 1"
   id="stop20" />

</linearGradient>
    <linearGradient
       id="SVGID_25_261341"
       gradientUnits="userSpaceOnUse"
       gradientTransform="matrix(0.9982,-0.06018481,0.06018481,0.9982,-36.2133,496.478)"
       x1="627.09802"
       y1="90.918602"
       x2="882.2879"
       y2="-39.450199">
<stop
   offset="1.410946%"
   style="stop-color:rgb(218,5,229);stop-opacity: 1"
   id="stop22" />

<stop
   offset="100%"
   style="stop-color:rgb(23,2,23);stop-opacity: 1"
   id="stop23" />

</linearGradient>
    <linearGradient
       id="SVGID_26_261342"
       gradientUnits="userSpaceOnUse"
       gradientTransform="matrix(0.9982,-0.06018481,0.06018481,0.9982,-36.2133,496.478)"
       x1="969.82159"
       y1="-14.572"
       x2="659.72247"
       y2="447.03671">
<stop
   offset="1.410946%"
   style="stop-color:rgb(218,5,229);stop-opacity: 1"
   id="stop24" />

<stop
   offset="49.65%"
   style="stop-color:rgb(65,60,245);stop-opacity: 1"
   id="stop25" />

<stop
   offset="100%"
   style="stop-color:rgb(4,198,255);stop-opacity: 1"
   id="stop26" />

</linearGradient>
    <linearGradient
       id="SVGID_27_261343"
       gradientUnits="userSpaceOnUse"
       gradientTransform="matrix(1,0,0,-1,0,1200)"
       x1="795.48297"
       y1="273.39551"
       x2="901.18512"
       y2="867.7785">
<stop
   offset="1.7833849999999998%"
   style="stop-color:rgb(53,99,203);stop-opacity: 1"
   id="stop27" />

<stop
   offset="52.05%"
   style="stop-color:rgb(120,30,209);stop-opacity: 1"
   id="stop28" />

<stop
   offset="100%"
   style="stop-color:rgb(218,5,229);stop-opacity: 1"
   id="stop29" />

</linearGradient>
    <linearGradient
       id="SVGID_28_261344"
       gradientUnits="userSpaceOnUse"
       gradientTransform="matrix(0.9982,-0.06018481,0.06018481,0.9982,-36.2133,496.478)"
       x1="836.35211"
       y1="24.915701"
       x2="435.08511"
       y2="102.3532">
<stop
   offset="1.410946%"
   style="stop-color:rgb(218,5,229);stop-opacity: 1"
   id="stop30" />

<stop
   offset="100%"
   style="stop-color:rgb(23,2,23);stop-opacity: 1"
   id="stop31" />

</linearGradient>
  </defs>
  <g
     inkscape:label="Warstwa 1"
     inkscape:groupmode="layer"
     id="layer1"
     transform="translate(-24.608863,-114.25445)">
    <g
       transform="matrix(0.50830527,0,0,0.50830527,102.45825,157.05862)"
       id="logo-logo">
<g
   paint-order="stroke"
   id="g34">
		<g
   transform="matrix(0.30608496,0,0,0.30608496,-90.432232,11.933933)"
   id="g7">
<g
   paint-order="stroke"
   id="g6">
		<g
   id="g2">
<linearGradient
   id="linearGradient17"
   gradientUnits="userSpaceOnUse"
   x1="81.153297"
   y1="616.02472"
   x2="537.75531"
   y2="668.82922">
<stop
   offset="0%"
   style="stop-color:rgb(50,23,99);stop-opacity: 1"
   id="stop6" />

<stop
   offset="52.42%"
   style="stop-color:rgb(122,15,174);stop-opacity: 1"
   id="stop17" />

</linearGradient>

<path
   style="opacity:1;fill:url(#SVGID_21_261337);fill-rule:nonzero;stroke:none;stroke-width:1;stroke-linecap:butt;stroke-linejoin:miter;stroke-miterlimit:4;stroke-dasharray:none;stroke-dashoffset:0"
   paint-order="stroke"
   transform="translate(-306.31878,-638.97645)"
   d="m 509,651 c -1.6,5.9 -4.1,11.5 -7,16.8 -2.7,4.9 -5.9,9.6 -9.2,14.1 -2.5,3.4 -5.2,6.6 -7.9,9.8 -5.1,6 -10.4,11.6 -15.4,16.9 -20,21.2 -43.2,40.3 -68.2,55.4 -32.8,19.9 -69,32.9 -105.7,35.2 -6.8,0.4 -13.6,0.5 -20.5,0.1 -0.9,0 -1.9,-0.1 -2.8,-0.2 -2.8,-0.2 -5.5,-0.4 -8.3,-0.8 v 0 c -1.8,-0.2 -3.7,-0.4 -5.5,-0.7 0,0 0,0 0,0 -24,-3.5 -47.8,-12.1 -70.8,-27 -51.5,-33.3 -86.1,-97.7 -86.3,-159.1 0,-0.5 0,-1.1 0,-1.6 0.1,-11.1 1.4,-21.4 3.8,-31 0.7,-2.8 1.5,-5.5 2.4,-8.2 8.9,-26.8 26.9,-47.2 49.8,-61.8 0.2,-0.1 0.3,-0.2 0.5,-0.3 2.3,-1.5 4.7,-2.9 7,-4.2 0.1,0 0.1,-0.1 0.2,-0.1 8.7,-4.9 18.1,-9.1 27.8,-12.5 26.2,-9.3 55.5,-13.5 84,-13.4 7.3,0 14.7,0.5 22.1,1.5 -6.2,0.4 -12.1,1.5 -17.7,3.1 -2.2,0.6 -4.3,1.4 -6.3,2.2 -15.1,6 -27.1,16.6 -35.6,29.9 -9.5,14.9 -14.4,33.2 -14.2,52.5 0.1,8.9 1.2,17.7 3.3,26.1 0,0.1 0,0.2 0.1,0.3 1.3,7.3 20.5,100.8 142.1,92.2 0.8,-0.1 1.7,-0.1 2.5,-0.2 2.1,-0.2 4.2,-0.4 6.4,-0.6 11.7,-1.3 24.4,-3.4 38,-6.7 18,-5 35.1,-15.6 51,-29.2 10.4,-8.9 20.3,-19.2 29.4,-30 0.2,-0.2 1.7,0.1 1.9,0.2 0.7,0.1 1.3,0.2 2,0.4 1.3,0.3 2.5,0.8 3.7,1.5 2.5,1.6 4,4 4.8,6.8 0.2,0.7 0.3,1.4 0.5,2.2 0.1,0.5 0.2,1 0.2,1.5 0.5,6.3 -0.4,12.9 -2.1,18.9 z"
   stroke-linecap="round"
   id="path2" />

</g>

		<g
   transform="translate(-0.0257623,6.7008715)"
   id="g5">
<linearGradient
   id="linearGradient33"
   gradientUnits="userSpaceOnUse"
   x1="107.7547"
   y1="696.21667"
   x2="509.7182"
   y2="558.27362">
<stop
   offset="0%"
   style="stop-color:rgb(50,23,99);stop-opacity: 1"
   id="stop21" />

<stop
   offset="41.699999999999996%"
   style="stop-color:rgb(122,15,174);stop-opacity: 1"
   id="stop32" />

<stop
   offset="93.67%"
   style="stop-color:rgb(50,23,99);stop-opacity: 1"
   id="stop33" />

</linearGradient>

<path
   style="opacity:1;fill:url(#SVGID_22_261338);fill-rule:nonzero;stroke:none;stroke-width:1;stroke-linecap:butt;stroke-linejoin:miter;stroke-miterlimit:4;stroke-dasharray:none;stroke-dashoffset:0"
   paint-order="stroke"
   transform="translate(-306.29302,-645.67732)"
   d="m 509,651 c -1.6,5.9 -4.1,11.5 -7,16.8 -2.7,4.9 -5.9,9.6 -9.2,14.1 -2.5,3.4 -5.2,6.6 -7.9,9.8 -5.1,6 -10.4,11.6 -15.4,16.9 -20,21.2 -43.2,40.3 -68.2,55.4 -32.8,19.9 -69,32.9 -105.7,35.2 -6.8,0.4 -13.6,0.5 -20.5,0.1 -0.9,0 -1.9,-0.1 -2.8,-0.2 -2.8,-0.2 -5.5,-0.4 -8.3,-0.8 v 0 c -1.8,-0.2 -3.7,-0.5 -5.5,-0.7 0,0 0,0 0,0 -23.9,-3.5 -47.7,-12.2 -70.7,-27 -51.5,-33.3 -86.1,-97.7 -86.3,-159.1 0,-0.5 0,-1.1 -0.1,-1.6 0.1,-11.1 1.4,-21.4 3.8,-31 0.7,-2.8 1.5,-5.5 2.4,-8.2 8.9,-26.8 26.9,-47.2 49.8,-61.8 0.2,-0.1 0.3,-0.2 0.5,-0.3 2.3,-1.5 4.7,-2.9 7,-4.2 0.1,0 0.1,-0.1 0.2,-0.1 8.7,-4.9 18.1,-9.1 27.8,-12.5 -1.2,2.9 -2.6,6.2 -4.3,9.8 0,0 -83.2,183 79.1,239.9 38.7,9.2 81.7,-3.4 120.8,-23 66.3,-33.2 120.8,-86.5 122,-87.7 l 0.3,-0.3 c 0.1,0.5 0.2,1 0.2,1.5 0.6,6.4 -0.3,13 -2,19 z"
   stroke-linecap="round"
   id="path5" />

</g>

</g>

</g>

		<g
   transform="matrix(0.30608496,0,0,0.30608496,-38.327016,-7.3718004)"
   id="g22">
<g
   paint-order="stroke"
   id="g21">
		<g
   id="g16">
<linearGradient
   id="linearGradient43"
   gradientUnits="userSpaceOnUse"
   x1="-1476.0514"
   y1="1305.2577"
   x2="1801.2595"
   y2="97.827301">
<stop
   offset="0%"
   style="stop-color:rgb(48,50,145);stop-opacity: 1"
   id="stop34" />

<stop
   offset="15.989999999999998%"
   style="stop-color:rgb(44,59,167);stop-opacity: 1"
   id="stop35" />

<stop
   offset="49.03%"
   style="stop-color:rgb(35,83,222);stop-opacity: 1"
   id="stop36" />

<stop
   offset="59.99%"
   style="stop-color:rgb(32,92,242);stop-opacity: 1"
   id="stop37" />

<stop
   offset="61.629999999999995%"
   style="stop-color:rgb(36,82,219);stop-opacity: 1"
   id="stop38" />

<stop
   offset="64.05999999999999%"
   style="stop-color:rgb(40,70,192);stop-opacity: 1"
   id="stop39" />

<stop
   offset="66.71000000000001%"
   style="stop-color:rgb(44,61,171);stop-opacity: 1"
   id="stop40" />

<stop
   offset="69.67%"
   style="stop-color:rgb(46,55,156);stop-opacity: 1"
   id="stop41" />

<stop
   offset="73.16%"
   style="stop-color:rgb(48,51,148);stop-opacity: 1"
   id="stop42" />

<stop
   offset="78.57%"
   style="stop-color:rgb(48,50,145);stop-opacity: 1"
   id="stop43" />

</linearGradient>

<path
   style="opacity:1;fill:url(#SVGID_23_261339);fill-rule:nonzero;stroke:none;stroke-width:1;stroke-linecap:butt;stroke-linejoin:miter;stroke-miterlimit:4;stroke-dasharray:none;stroke-dashoffset:0"
   paint-order="stroke"
   transform="translate(-476.55,-575.90333)"
   d="m 843.3,625.7 c 0,0 0,0.1 -0.1,0.2 0,0.1 -0.1,0.2 -0.1,0.2 -0.2,0.5 -0.3,1 -0.5,1.4 0,0.2 -0.1,0.3 -0.2,0.5 -0.1,0.2 -0.1,0.4 -0.2,0.6 -4.5,13.5 -25.6,69.9 -74.8,106.9 -26.3,19.7 -60.5,33.9 -104.6,33.1 -29.9,0 -56.7,-6.1 -79.7,-15 0,0 -0.1,0 -0.1,0 l -1.3,-0.6 c -0.5,-0.2 -1,-0.4 -1.4,-0.6 -0.5,-0.2 -1,-0.4 -1.5,-0.7 -0.1,0 -0.3,-0.1 -0.4,-0.2 l -0.4,-0.2 c -0.3,-0.1 -0.5,-0.3 -0.8,-0.4 -6.8,-3.2 -14.2,-7.2 -22.1,-12.2 -0.4,-0.3 -0.8,-0.5 -1.2,-0.8 -1.3,-0.8 -2.5,-1.7 -3.8,-2.5 -0.4,-0.3 -0.9,-0.6 -1.3,-0.9 -1.3,-0.9 -2.6,-1.8 -3.9,-2.7 -0.9,-0.6 -1.7,-1.3 -2.6,-1.9 -0.9,-0.6 -1.8,-1.3 -2.6,-2 -0.4,-0.3 -0.9,-0.7 -1.3,-1 -4.9,-3.9 -10,-8.2 -15.2,-12.9 -0.7,-0.6 -1.3,-1.2 -2,-1.8 -0.2,-0.1 -0.3,-0.3 -0.5,-0.5 -1.2,-1.1 -2.3,-2.2 -3.5,-3.3 -0.7,-0.7 -1.3,-1.3 -2,-2 l -0.1,-0.1 c -0.5,-0.5 -0.9,-0.9 -1.4,-1.4 -1.9,-1.9 -3.8,-3.8 -5.7,-5.9 -0.5,-0.5 -1,-1 -1.4,-1.5 -1,-1 -1.9,-2.1 -2.9,-3.1 l -0.7,-0.7 c -0.9,-0.9 -1.7,-1.9 -2.6,-2.9 -0.9,-1 -1.7,-2 -2.6,-3 -0.9,-1 -1.7,-2 -2.6,-3 -0.9,-1 -1.7,-2.1 -2.6,-3.1 -0.6,-0.8 -1.2,-1.5 -1.9,-2.3 -1.9,-2.3 -3.7,-4.7 -5.6,-7.1 -1.4,-1.8 -2.8,-3.6 -4.1,-5.5 -0.7,-0.9 -1.4,-1.9 -2.1,-2.8 -0.7,-0.9 -1.4,-1.9 -2.1,-2.9 -2.8,-3.9 -5.5,-7.9 -8.3,-12 -1,-1.5 -2.1,-3.1 -3.1,-4.7 -0.4,-0.6 -0.8,-1.2 -1.2,-1.8 -0.4,-0.6 -0.8,-1.2 -1.2,-1.8 -2,-3.1 -4,-6.3 -5.9,-9.5 -0.6,-1 -1.2,-2 -1.8,-2.9 -4.3,-7.2 -8.6,-14.8 -12.9,-22.8 -0.7,-1.3 -1.4,-2.7 -2.2,-4 -0.7,-1.4 -1.4,-2.7 -2.2,-4.1 -0.3,-0.5 -0.6,-1.1 -0.9,-1.6 -0.3,-0.5 -0.6,-1.1 -0.9,-1.6 -0.5,-1 -1.1,-2 -1.6,-3 -0.1,-0.1 -0.1,-0.3 -0.2,-0.4 -1.1,-2 -2.2,-3.9 -3.3,-5.9 -14.3,-24.9 -32,-48.3 -54.2,-66.1 -11.8,-9.5 -24.9,-17.4 -39.4,-23.1 -19.8,-7.8 -41,-11.2 -62.5,-10.9 -62.1,0.9 -126.6,32.8 -165.2,78 0.6,-1.4 1.3,-2.8 1.9,-4.2 0.1,-0.1 0.1,-0.3 0.2,-0.4 -0.1,0.1 -0.1,0.2 -0.2,0.3 v 0 c 0,0 0,0.1 -0.1,0.1 0,0 0,0 0,-0.1 0.2,-0.3 0.4,-0.7 0.6,-1.1 0.2,-0.4 0.4,-0.9 0.7,-1.4 0.4,-0.9 0.9,-1.9 1.3,-2.9 0.1,-0.2 0.1,-0.3 0.2,-0.5 -0.8,1.3 -1.4,2.5 -1.9,3.7 0,0 0,0 0,0 0,0 0,0.1 0,0.1 7.8,-20.9 77.3,-181.5 255,-173 28.6,2.4 56.7,10.2 83.7,21.7 1.5,0.6 2.9,1.3 4.4,1.9 1.4,0.6 2.7,1.2 4.1,1.8 1.5,0.7 3.1,1.4 4.6,2.1 36.4,17.2 70.9,40.8 102.7,66.5 1.2,1 2.4,1.9 3.5,2.9 2.9,2.4 5.8,4.7 8.6,7.1 1.9,1.6 3.7,3.2 5.6,4.8 4.3,3.7 8.5,7.4 12.7,11.1 1.3,1.2 2.7,2.4 4,3.5 6.6,5.9 13,11.9 19.3,17.8 6.7,6.3 13.2,12.6 19.5,18.8 16.4,16.1 31.5,31.7 45,45.7 0,0 0,0 0,0.1 0.8,0.7 1.6,1.4 2.4,2 0.9,0.8 1.9,1.6 2.8,2.3 0.6,0.5 1.1,0.9 1.7,1.4 0.3,0.3 0.7,0.5 1,0.8 0.4,0.3 0.8,0.6 1.1,0.9 1.8,1.4 3.5,2.8 5.3,4.2 0.4,0.3 0.7,0.6 1.1,0.9 0.4,0.3 0.8,0.6 1.3,1 0.3,0.2 0.5,0.4 0.7,0.6 0.5,0.4 1,0.8 1.6,1.2 0.2,0.1 0.3,0.3 0.5,0.4 0.5,0.4 1,0.7 1.4,1.1 1.4,1.1 2.9,2.1 4.3,3.1 0.2,0.2 0.5,0.3 0.7,0.5 0.3,0.2 0.5,0.3 0.7,0.5 0.5,0.4 1,0.7 1.6,1.1 0.5,0.4 1.1,0.7 1.6,1.1 0.5,0.4 1,0.7 1.5,1 0.5,0.3 1,0.7 1.5,1 0.1,0.1 0.2,0.2 0.4,0.2 0.7,0.4 1.3,0.8 1.9,1.3 0.8,0.5 1.5,1 2.3,1.4 1.6,1 3.2,1.9 4.8,2.9 0.4,0.2 0.7,0.4 1.1,0.6 0.3,0.2 0.7,0.4 1,0.6 0.2,0.1 0.4,0.3 0.7,0.4 0.6,0.3 1.1,0.6 1.7,0.9 0.1,0 0.1,0.1 0.2,0.1 0.7,0.4 1.4,0.7 2,1.1 0.7,0.4 1.4,0.7 2.2,1.1 0.3,0.2 0.7,0.3 1,0.5 1.2,0.6 2.4,1.2 3.6,1.7 1,0.5 2,0.9 3,1.3 0.8,0.3 1.5,0.6 2.3,0.9 0.6,0.3 1.2,0.5 1.9,0.7 0.5,0.2 0.9,0.3 1.4,0.5 0.7,0.3 1.5,0.5 2.2,0.8 0.1,0 0.2,0.1 0.3,0.1 0.5,0.2 1,0.3 1.4,0.5 0.6,0.2 1.2,0.4 1.8,0.6 0.7,0.2 1.3,0.4 1.9,0.6 0.1,0 0.3,0.1 0.4,0.1 0.6,0.2 1.1,0.3 1.7,0.5 0.5,0.1 1,0.3 1.5,0.4 0.6,0.1 1.1,0.3 1.7,0.4 0.8,0.2 1.6,0.4 2.4,0.5 0.8,0.2 1.6,0.3 2.4,0.5 0.8,0.2 1.6,0.3 2.3,0.4 h 0.3 c 0.7,0.1 1.4,0.2 2.1,0.3 0.3,0 0.5,0.1 0.8,0.1 1.5,0.2 3,0.4 4.5,0.5 10.4,1 21.2,0.5 32.9,-1.7 1,-0.2 2,-0.4 3,-0.6 l 3,-0.6 c 1,-0.2 2,-0.5 3,-0.7 4.1,-1 8.3,-2.2 12.6,-3.6 0.8,-0.3 1.6,-0.5 2.4,-0.8 0.3,-0.1 0.5,-0.2 0.8,-0.3 1.4,-0.5 2.8,-0.9 4.1,-1.4 0,0 0,0 0,0 0.6,-0.2 1.2,-0.4 1.8,-0.7 0.9,-0.2 1.7,-0.5 2.5,-0.8 z"
   stroke-linecap="round"
   id="path16" />

</g>

		<g
   transform="translate(-364.45,-17.153328)"
   id="g17">
<path
   style="opacity:1;fill:#2b6ef9;fill-rule:nonzero;stroke:none;stroke-width:1;stroke-linecap:butt;stroke-linejoin:miter;stroke-miterlimit:4;stroke-dasharray:none;stroke-dashoffset:0"
   paint-order="stroke"
   transform="translate(-112.1,-558.75)"
   d="m 112,559 c 0,-0.2 0.1,-0.3 0.2,-0.5 -0.1,0.3 -0.2,0.5 -0.2,0.5 z"
   stroke-linecap="round"
   id="path17" />

</g>

		<g
   transform="translate(-364.15,-18.003328)"
   id="g18">
<path
   style="opacity:1;fill:#2b6ef9;fill-rule:nonzero;stroke:none;stroke-width:1;stroke-linecap:butt;stroke-linejoin:miter;stroke-miterlimit:4;stroke-dasharray:none;stroke-dashoffset:0"
   paint-order="stroke"
   transform="translate(-112.4,-557.9)"
   d="m 112.2,558.5 c 0.1,-0.3 0.2,-0.7 0.4,-1.2 -0.1,0.4 -0.3,0.8 -0.4,1.2 z"
   stroke-linecap="round"
   id="path18" />

</g>

		<g
   transform="translate(0.95,-15.068253)"
   id="g20">
<linearGradient
   id="linearGradient46"
   gradientUnits="userSpaceOnUse"
   x1="-53.0177"
   y1="801.51379"
   x2="1061.1899"
   y2="343.724">
<stop
   offset="0%"
   style="stop-color:rgb(48,50,145);stop-opacity: 1"
   id="stop44" />

<stop
   offset="47.599999999999994%"
   style="stop-color:rgb(62,88,232);stop-opacity: 1"
   id="stop45" />

<stop
   offset="100%"
   style="stop-color:rgb(48,50,145);stop-opacity: 1"
   id="stop46" />

</linearGradient>

<path
   style="opacity:1;fill:url(#SVGID_24_261340);fill-rule:nonzero;stroke:none;stroke-width:1;stroke-linecap:butt;stroke-linejoin:miter;stroke-miterlimit:4;stroke-dasharray:none;stroke-dashoffset:0"
   paint-order="stroke"
   transform="translate(-477.5,-560.83507)"
   d="m 843.3,625.7 c 0,0 0,0.1 -0.1,0.2 0,0 0,0.1 0,0.2 0,0 0,0 0,0.1 0,0.2 -0.1,0.3 -0.1,0.4 -0.1,0.2 -0.1,0.4 -0.2,0.7 -0.1,0.2 -0.1,0.5 -0.3,0.8 -0.1,0.2 -0.1,0.4 -0.2,0.6 -4.5,13.5 -25.6,69.9 -74.8,106.9 -8.8,1.8 -14.6,2.4 -14.6,2.4 0,0 -95.8,-27.5 -203.9,-174.5 -99.2,-134.9 -291.5,-161.4 -408,-40.5 -10.2,10.6 -19.9,22.4 -28.8,35.3 0,0 0,0 0,0 -0.1,0.1 -0.2,0.2 -0.3,0.4 0,0 0,0.1 -0.1,0.1 -0.1,0.1 -0.1,0.2 -0.2,0.3 0,0 0,0 0,-0.1 0.1,-0.1 0.1,-0.2 0.2,-0.3 v 0 c 0.1,-0.3 0.3,-0.5 0.4,-0.8 0.2,-0.4 0.4,-0.9 0.7,-1.4 0.5,-1 1,-2.2 1.5,-3.4 0,0.1 -0.1,0.1 -0.1,0.2 -0.8,1.3 -1.4,2.4 -1.9,3.6 0,-0.1 0.1,-0.3 0.1,-0.4 0,0 0,0 0,0 8.6,-22.6 78.3,-181 254.8,-172.5 28.6,2.4 56.7,10.2 83.7,21.7 1.5,0.6 2.9,1.3 4.4,1.9 1.4,0.6 2.7,1.2 4.1,1.8 1.5,0.7 3.1,1.4 4.6,2.1 36.4,17.2 70.9,40.8 102.7,66.5 1.2,1 2.4,1.9 3.5,2.9 2.9,2.4 5.8,4.7 8.6,7.1 1.9,1.6 3.7,3.2 5.6,4.8 4.3,3.7 8.5,7.4 12.7,11.1 1.3,1.2 2.7,2.4 4,3.5 6.6,5.9 13,11.9 19.3,17.8 6.7,6.3 13.2,12.6 19.5,18.8 8.7,11.3 17.5,21.4 26.5,29.5 22.2,20 46.3,41.6 74.1,54 1,0.5 2,0.9 3,1.3 9.1,3.8 18.7,6.6 28.7,8 1.5,0.2 3,0.4 4.5,0.5 10.4,1 21.2,0.5 32.9,-1.7 1,-0.2 2,-0.4 3,-0.6 l 3,-0.6 c 1,-0.2 2,-0.5 3,-0.7 4.1,-1 8.3,-2.2 12.6,-3.6 0.8,-0.3 1.6,-0.5 2.4,-0.8 0.3,-0.1 0.5,-0.2 0.8,-0.3 1.5,-0.6 3,-1.1 4.4,-1.6 0,0 0,0 0,0 0.6,-0.2 1.2,-0.4 1.8,-0.7 0.9,-0.4 1.7,-0.7 2.5,-1 z"
   stroke-linecap="round"
   id="path20" />

</g>

</g>

</g>

		<g
   transform="matrix(0.30608496,0,0,0.30608496,62.47194,0)"
   id="g33">
<g
   paint-order="stroke"
   id="g32">
		<g
   transform="translate(-90.066921,-152.49608)"
   id="g23">
<linearGradient
   id="linearGradient48"
   gradientUnits="userSpaceOnUse"
   gradientTransform="matrix(0.9982,-0.06018481,0.06018481,0.9982,-36.2133,496.478)"
   x1="627.09802"
   y1="90.918602"
   x2="882.2879"
   y2="-39.450199">
<stop
   offset="1.410946%"
   style="stop-color:rgb(218,5,229);stop-opacity: 1"
   id="stop47" />

<stop
   offset="100%"
   style="stop-color:rgb(23,2,23);stop-opacity: 1"
   id="stop48" />

</linearGradient>

<path
   style="opacity:1;fill:url(#SVGID_25_261341);fill-rule:nonzero;stroke:none;stroke-width:1;stroke-linecap:butt;stroke-linejoin:miter;stroke-miterlimit:4;stroke-dasharray:none;stroke-dashoffset:0"
   paint-order="stroke"
   transform="translate(-715.8,-447.49142)"
   d="m 855.8,528.8 c 0,0 -93.5,-136 -234.8,-3.7 -8.4,-7.5 -16.4,-15.8 -25.7,-23.7 -6,-5.1 -13,-11.3 -19.5,-16.6 20.6,-47.7 51.8,-83 94.3,-112.3 74.3,-20.7 124.3,12 152.7,61.3 16.5,28.5 30.6,62.5 33,95 z"
   stroke-linecap="round"
   id="path23" />

</g>

		<g
   transform="translate(0,0.05)"
   id="g26">
<linearGradient
   id="linearGradient51"
   gradientUnits="userSpaceOnUse"
   gradientTransform="matrix(0.9982,-0.06018481,0.06018481,0.9982,-36.2133,496.478)"
   x1="969.82159"
   y1="-14.572"
   x2="659.72247"
   y2="447.03671">
<stop
   offset="1.410946%"
   style="stop-color:rgb(218,5,229);stop-opacity: 1"
   id="stop49" />

<stop
   offset="49.65%"
   style="stop-color:rgb(65,60,245);stop-opacity: 1"
   id="stop50" />

<stop
   offset="100%"
   style="stop-color:rgb(4,198,255);stop-opacity: 1"
   id="stop51" />

</linearGradient>

<path
   style="opacity:1;fill:url(#SVGID_26_261342);fill-rule:nonzero;stroke:none;stroke-width:1;stroke-linecap:butt;stroke-linejoin:miter;stroke-miterlimit:4;stroke-dasharray:none;stroke-dashoffset:0"
   paint-order="stroke"
   transform="translate(-805.86692,-600.03749)"
   d="m 1102.1,603.8 c -1.8,115 -83.6,224.4 -193.4,258.7 -20,6.3 -40.8,9.9 -61.6,11.2 l -1.6,0.1 c 0,0 -121.6,21.6 -273.4,-110.9 -20.4,-17.8 -41.3,-38.3 -62.5,-62.1 90.1,86.4 179.1,76.5 251.8,32.4 17.4,-11.6 33,-26 45.8,-42.4 57.5,-74.3 65.2,-198.5 4.3,-273.5 -22.9,-28.3 -57.1,-44.8 -93.7,-42.2 -20,1.4 -39.4,8.4 -57.1,17.6 -15.4,8.1 -37.3,19.6 -48.1,33.7 2.1,-2.8 4.4,-5.6 6.7,-8.3 0.1,-0.2 0.3,-0.3 0.4,-0.5 31.1,-36.6 73.6,-63.2 120.1,-78.2 v 0 c 22.8,-7.4 46.5,-12 70.3,-13.7 36.5,-2.6 73.3,1.7 107.1,13.5 108.5,37.7 186.8,149.6 184.9,264.6 z"
   stroke-linecap="round"
   id="path26" />

</g>

		<g
   transform="translate(31.25)"
   id="g29">
<linearGradient
   id="linearGradient54"
   gradientUnits="userSpaceOnUse"
   gradientTransform="matrix(1,0,0,-1,0,1200)"
   x1="795.48297"
   y1="273.39551"
   x2="901.18512"
   y2="867.7785">
<stop
   offset="1.7833849999999998%"
   style="stop-color:rgb(53,99,203);stop-opacity: 1"
   id="stop52" />

<stop
   offset="52.05%"
   style="stop-color:rgb(120,30,209);stop-opacity: 1"
   id="stop53" />

<stop
   offset="100%"
   style="stop-color:rgb(218,5,229);stop-opacity: 1"
   id="stop54" />

</linearGradient>

<path
   style="opacity:1;fill:url(#SVGID_27_261343);fill-rule:nonzero;stroke:none;stroke-width:1;stroke-linecap:butt;stroke-linejoin:miter;stroke-miterlimit:4;stroke-dasharray:none;stroke-dashoffset:0"
   paint-order="stroke"
   transform="translate(-837.11692,-599.98749)"
   d="m 1102.1,603.8 c -1.8,115 -83.6,224.4 -193.4,258.7 -20,6.3 -40.8,9.9 -61.6,11.2 l -1.6,0.1 c 0,0 -121.6,21.6 -273.4,-110.9 C 675.4,815 908.1,894.8 998,615.9 1056.6,432.7 890.9,300 739.7,339.3 c 22.8,-7.4 46.5,-12 70.3,-13.7 36.5,-2.6 73.3,1.7 107.1,13.5 108.6,37.8 186.9,149.7 185,264.7 z"
   stroke-linecap="round"
   id="path29" />

</g>

		<g
   transform="translate(-81.616921,-126.98444)"
   id="g31">
<linearGradient
   id="linearGradient56"
   gradientUnits="userSpaceOnUse"
   gradientTransform="matrix(0.9982,-0.06018481,0.06018481,0.9982,-36.2133,496.478)"
   x1="836.35211"
   y1="24.915701"
   x2="435.08511"
   y2="102.3532">
<stop
   offset="1.410946%"
   style="stop-color:rgb(218,5,229);stop-opacity: 1"
   id="stop55" />

<stop
   offset="100%"
   style="stop-color:rgb(23,2,23);stop-opacity: 1"
   id="stop56" />

</linearGradient>

<path
   style="opacity:1;fill:url(#SVGID_28_261344);fill-rule:nonzero;stroke:none;stroke-width:1;stroke-linecap:butt;stroke-linejoin:miter;stroke-miterlimit:4;stroke-dasharray:none;stroke-dashoffset:0"
   paint-order="stroke"
   transform="translate(-724.25,-473.00305)"
   d="m 853.2,529.6 c 0,0 -90.9,-136.9 -232.2,-4.6 -8.4,-7.5 -16.4,-15.8 -25.7,-23.7 0,0 47.1,-89.6 176.5,-84.7 17,-0.4 34.4,6.4 51.1,17.2 21.3,26.6 27.8,63.4 30.3,95.8 z"
   stroke-linecap="round"
   id="path31" />

</g>

</g>

</g>

</g>

</g>
  </g>
</svg>
